<?xml version="1.0" encoding="UTF-8"?>
<svg xmlns="http://www.w3.org/2000/svg" enable-background="new 0 0 1536 1024" version="1.1" viewBox="350 365 880 270" xml:space="preserve" style="background: transparent;">

<path d="m1102.1 516.03c1.0513-0.66229 2.3546-1.1124 3.1167-2.0179 17.995-21.385 35.974-42.784 53.826-64.289 2.1893-2.6373 4.3403-3.8685 7.9006-3.8243 16.912 0.20978 33.828 0.093781 51.773 0.093781-22.496 26.615-44.349 52.467-65.972 78.049 24.402 34.17 48.683 68.171 72.626 102.55-18.998 0.3819-37.658 0.38031-56.319 0.37878-17.708-24.757-35.415-49.513-52.92-73.986-2.6705 2.4642-5.3179 4.9073-8.1702 7.6956-0.20483 0.34522-0.27624 0.539-0.27624 0.539s-0.26758 0.11298-0.48779 0.33441c-0.4148 0.37512-0.5542 0.5686-0.6383 0.80188 0 0-0.089844 0.10455-0.30933 0.24817-0.42969 0.30597-0.58716 0.50928-0.69177 0.75348 0 0-0.088257 0.10449-0.31323 0.25958-0.44238 0.33252-0.60388 0.55133-0.70935 0.81146 0 0-0.006226 0.092163-0.24573 0.23212-0.48572 0.35248-0.64807 0.61658-0.72656 0.93231 0 0 0.28686 0.24261-0.065918 0.21674-0.54211 0.25104-0.73144 0.52795-0.92078 0.80493 0 0 0.21643 0.15997-0.1012 0.16797-0.50745 0.29083-0.69702 0.57373-0.88672 0.85663 0 0 0.31921 0.2395-0.13757 0.31165-0.93664 1.7378-1.8048 3.3973-1.8311 5.0701-0.1366 8.6571-0.056275 17.318-0.054566 25.977 0.001831 9.2436 3.66e-4 18.487 3.66e-4 27.668h-47.574c0-26.138-0.013184-51.949 0.002685-77.76 0.035156-56.95 0.084839-113.9 0.12866-170.85 0 0-0.082275-0.031921 0.39587-0.042816 16.091 0.070679 31.703 0.15222 47.315 0.23376 0 0 0.02478-0.1593-0.04126 0.3139-0.065918 47.322-0.065918 94.171-0.065918 141.02 0.297 0.073486 0.59387 0.14697 0.89087 0.2204 0.4939-1.2585 0.98779-2.5171 1.4817-3.7756z" fill="#0f172a" data-index="1"/>
<path d="m648.99 455.89c18.364-12.815 39.104-15.95 60.884-15.125 16.885 0.63977 32.915 4.4066 46.588 14.559 5.9858 4.4448 10.483 10.895 16 16.821 0.39288 0.68878 0.518 0.95447 0.7193 1.1843 0 0 0.06427 0.31988 0.35895 0.69269 0.98663 1.6692 1.6786 2.9656 2.3706 4.262 0 0-0.050293 0.39197 0.065002 0.93591 1.7734 6.7798 3.4314 13.016 5.1871 19.619h-47.063s-0.015747 0.10193-0.030334-0.30548c-1.6852-4.493-3.3557-8.5785-5.0262-12.664-0.7774-0.91245-1.5548-1.8249-2.7608-3.093-1.4464-0.98633-2.4641-1.6169-3.4819-2.2475 0 0-0.18311-0.24872-0.63959-0.42755-13.239-5.7111-25.899-6.106-38.388 0.72311 0 0 0.11615 0.028046-0.19464 0.038117-0.76611 0.36697-1.2215 0.72388-1.6769 1.0808 0-3e-5 0.073914 0.044769-0.26446 0.099854-2.4721 2.6202-4.6059 5.1854-6.7397 7.7506-3.7199 7.6077-2.0796 14.606 5.6542 17.436 10.15 3.714 20.742 6.4174 31.328 8.7001 16.763 3.6146 33.633 6.7259 48.787 15.314 14.125 8.0052 21.948 20.096 23.339 36.386 2.7431 32.111-18.757 52.732-45.382 60.311-25.454 7.2455-50.747 5.6248-75.767-2.1404-4.1708-1.2944-7.9495-3.8519-12.396-6.1236-1.5158-0.90094-2.5449-1.504-3.5739-2.1072 0 0-0.20904-0.39929-0.53229-0.57495-0.48724-0.35107-0.68927-0.4408-0.92938-0.44482 0 0-0.28876 0.21246-0.29388-0.098633-0.34503-0.46619-0.68494-0.62128-1.0248-0.77631-0.002869-0.34479-0.16919-0.56757-0.8219-0.93842-0.73651-0.58887-1.1501-0.90765-1.5636-1.2264 0 0-0.14331-0.17328-0.36908-0.38055-0.41821-0.41223-0.65332-0.53638-0.93109-0.57965-0.12689 0.11682-0.25372 0.23364-0.31525-0.037659-0.24005-0.54889-0.54541-0.70966-0.85083-0.87042 0 0-0.039917 0.12396-0.1109-0.18188-0.9834-1.1437-1.8958-1.9814-2.8082-2.8193 0 0-0.1012 0.14917-0.11743-0.14148-0.29138-0.50012-0.56647-0.70972-0.84155-0.91931 0 0-0.1383 0.20581-0.11212-0.084472-0.12579-0.55469-0.33246-0.76544-0.59381-0.92261 0 0-0.094422-0.087463-0.27484-0.3689-0.5694-0.63623-0.95844-0.99109-1.3475-1.3459 0.032105-0.33752-0.084656-0.61176-0.66235-1.1374-0.71973-0.90912-1.1274-1.5035-1.535-2.0978 0 0-0.10925-0.31329-0.38446-0.60431-0.71515-0.98059-1.1552-1.6702-1.5952-2.3599 0 0-0.078247-0.36395-0.39148-0.7262-1.1281-1.996-1.9429-3.6298-2.7577-5.2636 0 0-0.053894-0.2168-0.23743-0.49066-0.35345-0.67358-0.52338-1.0732-0.69324-1.473 0 0-0.002258-0.33502-0.2572-0.77991-1.6458-6.2515-3.0364-12.058-4.4271-17.864 0 0-0.080566-0.031433 0.39917-0.042236 16.455 0.039185 32.43 0.089233 48.406 0.13922 0 0 0.013978-0.10126 0.023194 0.30817 1.3511 4.1393 2.6929 7.8693 4.0347 11.599 0 0 0.037475-0.048523 0.054016 0.22668 0.29169 0.49579 0.56677 0.71637 0.84192 0.93689 0 0 0.021973-0.099182 0.08612 0.21973 1.3328 1.4788 2.6016 2.6387 3.8704 3.7986 0 0 0.059814-0.1156 0.17432 0.21118 14.176 10.433 37.602 10.812 51.447 1.1575 0 0 0.051514-0.091675 0.36188-0.25378 0.97833-0.87042 1.6464-1.5787 2.3145-2.287 0 0-0.088623-0.036743 0.18414-0.094299 0.58588-0.49237 0.89899-0.92718 1.2121-1.3621 0 0 0.059509-0.11658 0.25793-0.34631 0.32489-0.52234 0.41754-0.82532 0.4765-1.1386 0 0-0.10956-0.022339 0.22174-0.1629 3.085-5.5897 3.7814-11.018 0.16589-16.402 0 0-0.10126-0.1098-0.19995-0.2959-0.20117-0.3537-0.34552-0.46881-0.53174-0.53143 0 0-0.094361-0.40704-0.42023-0.70398-0.82751-0.70343-1.3292-1.11-1.8309-1.5165 0 0-0.125-0.10754-0.37494-0.30292-0.53973-0.32031-0.84058-0.40704-1.1525-0.45557 0 0-0.018494 0.10803-0.14972-0.21069-5.0793-2.0753-9.9284-4.2169-14.993-5.5198-18.93-4.8693-37.93-9.464-56.905-14.162 0 0-0.039734 0.088684-0.12622-0.22906-1.4321-0.92126-2.7775-1.5248-4.123-2.1284 0 0-0.2149-0.28516-0.57849-0.40686-0.64105-0.1712-0.91742-0.22626-1.1926-0.28693-0.44885-0.32227-0.89764-0.64459-1.7603-1.2707-0.91888-0.51874-1.4241-0.73364-1.9293-0.94855-0.1275 0.11218-0.25494 0.22436-0.3233-0.03003-0.36865-0.59308-0.79645-0.81946-1.2242-1.0459 0 0-0.16064-0.23187-0.49933-0.45428-0.96344-0.56067-1.5882-0.89899-2.2129-1.2372 0 0-0.037964 0.095581-0.11475-0.20532-0.91083-0.88446-1.7448-1.468-2.5789-2.0516-0.13733 0.14087-0.27466 0.28174-0.38599-0.048157-1.2299-1.5985-2.4858-2.7262-3.7418-3.8539 0 0-0.045959 0.11719-0.064331-0.15021-0.26148-0.50415-0.5047-0.74097-0.74786-0.97772-0.085144 0.1485-0.17023 0.29694-0.24408-0.02362-0.39075-0.85815-0.79272-1.2474-1.1947-1.6365 0.031616-0.33484-0.077088-0.6153-0.62195-1.1375-0.34137-0.63238-0.48694-0.91766-0.73254-1.152 0 0-0.087036-0.13116-0.31451-0.4884-1.272-2.5488-2.5649-4.6582-3.3212-6.945-5.4921-16.606-3.4277-32.39 5.4223-47.377 0 0 0.21814-0.15366 0.40991-0.49732 0.66272-1.0701 1.1337-1.7965 1.6046-2.5229 0 0 0.17841-0.13956 0.42175-0.44574 0.61737-0.94684 0.99133-1.5875 1.3654-2.2281 2.5149-2.4178 5.0297-4.8357 7.9409-7.6472 0.64856-0.6525 0.9007-0.91128 1.1528-1.1701 0 0-0.13989-0.061951 0.11157-0.049896 0.2514 0.012024 0.51361-0.33359 0.51361-0.33359z" fill="#0f172a" data-index="2"/>
<path d="m554.15 487.98c12.449 31.274 24.907 62.544 37.344 93.824 5.8834 14.797 11.725 29.611 17.075 44.806-17.526 0.38568-34.541 0.38294-51.556 0.38019-9.977-25.942-19.958-51.883-29.926-77.828-1.1232-2.9236-2.1757-5.8743-3.5323-9.0492-0.2713-0.23682-0.21783-0.26978-0.27673-0.56421-0.29163-0.83203-0.52429-1.3696-0.72504-1.9175 0.031861-0.010193 0.05188-0.074036-0.077453-0.42444-2.4988-6.3983-4.8683-12.446-7.2518-18.416-0.013916 0.077881 0.14008 0.041199 0.059204-0.28674-0.43793-1.1195-0.79504-1.9111-1.1669-2.6481-0.01471 0.054627 0.098205 0.048462 0.04602-0.32159-1.0463-2.8307-2.0404-5.2914-3.0482-7.6855-0.013733 0.06659 0.12207 0.059265 0.075653-0.32684-9.0086-24.997-17.971-49.607-27.106-74.694-0.65213 0.81561-0.89206 1.0041-0.98554 1.2487-8.671 22.686-17.331 45.376-26.463 68.007-7.5956-0.3317-14.72-0.83444-21.843-0.81726-8.2647 0.019959-16.528 0.49628-25.005 0.70679-0.21289-0.067718-0.65936-0.051757-0.65936-0.051757 9.2467-22.737 18.493-45.474 27.877-68.91 6.936-17.547 13.736-34.395 20.535-51.242 0 0 0.17557-0.19428 0.30933-0.59644 0.51617-1.3018 0.89856-2.2014 1.281-3.1011 0 0-0.08493-0.030487 0.39154-0.043976 17.119 0.025879 33.762 0.065216 50.405 0.10455 0 0 0.02893-0.086029 0.059265 0.21463 0.43469 1.1858 0.83905 2.0708 1.2434 2.9559 0 0 0.01358 0.30341 0.25494 0.71448 0.92999 2.0199 1.6187 3.6287 2.3073 5.2375 0 0 0.035644-0.11597 0.035644 0.20898 0.45764 1.486 0.91516 2.6469 1.3727 3.8079 0 0-0.015442 0.37824 0.23596 0.77939 0.75726 1.6754 1.2631 2.9495 1.769 4.2237 0 0-0.010132 0.37363 0.2478 0.77112 0.76776 1.6796 1.2776 2.9618 1.7874 4.2439 0 0 0.00177 0.31189 0.23151 0.7001 0.73828 1.6914 1.2468 2.9947 1.7552 4.2979 0 0 0.006408 0.33066 0.2746 0.758 1.3772 3.3497 2.4321 6.2939 3.6035 9.1911 9.6702 23.92 19.362 47.83 29.047 71.744z" fill="#0f172a" data-index="3"/>
<path d="m867.06 626.77c-0.49438-0.25836-0.98871-0.51672-2.0494-0.83057-0.94397-0.15601-1.3218-0.25653-1.6995-0.35706 0 0-0.23535 0.19464-0.3371-0.11517-0.96314-0.51471-1.8246-0.7196-2.686-0.92444 0 0-0.071533 0.13489-0.19598-0.11877-0.69745-0.35785-1.2704-0.46204-2.0029-0.84796-1.5037-0.84534-2.8479-1.4089-4.1921-1.9726 0 0-0.18933-0.35223-0.63354-0.56574-2.02-1.1975-3.5959-2.1816-5.1718-3.1656 0 0-0.068176 0.11377-0.1098-0.17114-0.4682-0.56439-0.89465-0.84381-1.3212-1.1232 0 0-0.11255-0.14258-0.35468-0.43323-1.1522-1.0122-2.0622-1.7337-2.9722-2.4553 0 0-0.25268 0.22565-0.18451-0.12616-0.071838-0.65283-0.30438-0.83716-0.62946-0.90478 0 0-0.083618-0.088135-0.1654-0.31378-0.20874-0.46436-0.40564-0.60584-0.6723-0.65021 0 0-0.088928-0.17822-0.26862-0.4845-0.55798-0.64972-0.93616-0.99316-1.3143-1.3366 0 0-0.083374 0.10071-0.09314-0.2038-0.46082-0.88483-0.91193-1.4652-1.363-2.0455 0 0-0.091613-0.13068-0.24011-0.43225-0.61462-1.0305-1.0808-1.7594-1.547-2.4883 0 0-0.08905-0.39655-0.41272-0.79871-2.3444-7.8187-5.9206-15.195-6.1142-22.659-0.79803-30.767-0.57013-61.56-0.71771-92.344-0.007629-1.592-9.76e-4 -3.184-9.76e-4 -5.1054h-30.528s-0.049866-0.40271-0.039551-1.0591c-0.040833-12.352-0.091919-24.048-0.14307-35.743 0 0 0.12036-0.41373 0.60114-0.69382 10.234-0.28006 19.987-0.28006 30.068-0.28006 0-1.4763-0.008545-2.4352 0.00122-3.3939 0.13098-12.932 0.26465-25.863 0.86389-38.779 4.829-0.014282 9.1916-0.044616 13.963 0.023774 1.8036 0.033355 3.1982-0.032044 4.9894-0.031739 1.4651 0.020264 2.5336-0.025177 3.9313 0.027161 0.77759 0.031738 1.226-0.034302 2.1386-0.033386 6.8188 0.023834 13.173-0.019318 19.781 0.0307 0.42334 0.034089 0.59338-0.024932 1.2053-0.020874 0.80798 1.5047 1.4764 2.943 1.4927 4.3885 0.13745 12.259 0.15607 24.519 0.16638 37.049 0.26483 0.36002 0.57373 0.44891 1.348 0.6026 14.824 0.084411 29.183 0.1041 43.542 0.12381 0 0 0.004578-0.005219 0.045105 0.4635-0.020813 12.805-0.082153 25.141-0.14355 37.477 0 0 0.072509 0.025451-0.39294 0.022888-15.066-0.002594-29.666-0.002594-44.494-0.002594 0 29.022-0.21149 57.497 0.22131 85.963 0.067261 4.4227 3.079 8.8007 4.7291 13.199 0.44989 0.58868 0.89978 1.1774 1.7926 2.1583 12.526 7.7824 25.378 3.9348 37.917 2.5568v36.29c-3.3973 0.88483-6.5739 1.7122-9.9802 2.4926-0.66595 0.1153-1.1024 0.27753-1.8967 0.40234-0.83234 0.016663-1.3068 0.070862-2.0997 0.069092-0.88751 0.20666-1.4564 0.46942-2.4028 0.73511-3.4104 0.34357-6.4433 0.68433-9.626 0.91125-0.4328-0.15948-0.64954-0.060363-1.2574 0.13867-8.2415-0.45074-16.026-0.85651-24.021-1.4767-0.60474-0.22394-0.99762-0.23352-1.7517-0.32593-1.0976-0.15924-1.834-0.2356-2.5704-0.31201z" fill="#0f172a" data-index="4"/>
<path d="m962.12 446.04c15.009-0.027649 30.019-0.055298 45.636 0.37735 0.59625 58.968 0.58942 117.48 0.54688 175.98-0.001281 1.7822-0.37262 3.5641-0.57141 5.3463 6.1e-5 0 0.092835 0.11206-0.32599-0.016541-15.349-0.13495-30.278-0.14136-45.208-0.1477 0 0-0.042359 0.25146-0.049012-0.20129-0.014038-60.749-0.021423-121.04-0.028808-181.34z" fill="#0f172a" data-index="5"/>
<path d="m360.04 626.89c6.1065-15.553 12.19-31.116 18.327-46.657 4.8156-12.195 9.6975-24.364 14.614-37.096 0.063659-0.55164 0.068207-0.95001 0.51166-0.98224 12.793-0.46362 25.143-0.89496 37.824-1.2501 0.78027 0.031677 1.2291-0.013001 2.123 0.027587 3.1518 0.083802 5.8586 0.082398 8.8118 0.1795 0.46835 0.36798 0.69034 0.63757 0.80478 1.2651-5.2701 14.175-10.433 27.993-15.595 41.81 0 0-0.20529 0.2229-0.32977 0.69122-5.4848 14.34-10.845 28.211-16.206 42.083 0 0 0.059784 0.039917-0.41458 0.034424-17.14-0.03888-33.805-0.072205-50.471-0.10553z" fill="#0f172a" data-index="6"/>
<path d="m966.91 369.82c19.584-10.172 41.971-0.74057 48.233 18.039 4.2107 12.627 0.56976 26.282-9.4508 34.844-10.577 9.0375-25.747 10.645-38.213 4.0481-11.14-5.895-17.906-18.912-16.776-31.652 0.99072-11.172 6.6666-19.216 16.206-25.279z" fill="#EABB58" data-index="7"/>
<path d="m442 541.01c-2.7068 0.001343-5.4136 0.002747-8.6157-0.38592-1.1308-0.79694-1.7663-1.2039-2.8695-1.6132-10.865 0.3269-21.267 0.55402-31.655 1.076-1.9688 0.098938-3.8789 1.3677-5.816 2.0967 0 0-0.004548 0.39838-0.085694 0.57953-10.651 2.6998-20.671 6.2134-28.431 15.167 1.5956-5.7424 3.0711-11.521 4.8148-17.219 2.617-8.5504 5.162-17.141 8.2987-25.504 0.99658-2.657 3.3653-5.8842 5.8244-6.7089 8.0813-2.7106 16.492-4.4383 25.217-6.5606 0.44031-0.016906 0.88678-0.032867 1.3948 0.33164 7.3058 0.49802 14.103 0.63153 20.863 1.1199-1.6238 1.9084-4.1966 3.2518-4.5816 5.0609-0.72449 3.4041-1.0612 7.3644-0.003601 10.582 2.7568 8.3881 2.8173 19.136 15.154 20.636 0.21506 0.026184 0.32999 0.87573 0.49161 1.3411z" fill="#186648" data-index="8"/>
<path d="m442.25 541.11c-0.40802-0.56384-0.52295-1.4134-0.73801-1.4396-12.336-1.5003-12.397-12.248-15.154-20.636-1.0576-3.2178-0.72089-7.178 0.003601-10.582 0.38501-1.809 2.9578-3.1524 4.9254-5.0695 0.84039-0.35309 1.2984-0.34268 1.8369-0.17929 0.33261 0.05072 0.58469-0.051575 1.2487-0.16571 1.5103 0.00528 2.6086 0.0224 3.9096 0.28442 1.3465 0.084198 2.4904-0.076477 4.0823-0.25629 2.7317 0.2096 5.0208 0.66278 7.2975 0.60672 2.5027-0.061615 4.9938-0.59192 7.9466-0.88391 8.1127 0.75723 15.769 1.4804 22.962 2.2072-5.0184 0.003723-9.5736 0.003723-13.931 0.003723 1.2463 4.5073 2.5998 9.3016 3.8942 14.112 1.2728 4.73 2.3399 9.5206 3.7635 14.204 1.6305 5.3638 6.4857 8.5363 12.185 8.7222 4.2123 0.13739 8.411 0.69061 12.616 1.0587-16.411-0.35742-32.822-0.71478-50.11-1.0721-2.5263-0.002136-4.1761-0.004394-5.826-0.006653-0.22198-0.26959-0.44397-0.53918-0.91232-0.90716z" fill="#165C41" data-index="9"/>
<path d="m499.49 543.17c-4.6031-0.43811-8.8018-0.99133-13.014-1.1287-5.6992-0.18591-10.554-3.3583-12.185-8.7222-1.4236-4.683-2.4906-9.4736-3.7635-14.204-1.2945-4.8102-2.6479-9.6046-3.8942-14.112 4.3574 0 8.9126 0 14.271 0.006714 1.2576 0.033325 1.7115 0.059906 2.4237 0.34607 2.3686 0.087677 4.4789-0.084228 7.0251-0.27844 7.2491 0.93042 14.062 1.8831 20.876 2.8358 0 0-0.1358 0.007325-0.1395 0.34698 1.0367 2.7762 2.0773 5.2128 3.1178 7.6494 0 0-0.11292 0.006165-0.11365 0.32745 0.42059 1.0809 0.84186 1.8405 1.2632 2.6001 0 0-0.15399 0.036682-0.20355 0.36639 1.8235 5.9193 3.6591 11.522 5.6265 17.078 0.20184 0.57001 1.1931 0.86047 1.8181 1.2806 0 0-0.020019 0.063843-0.19086 0.4101 0.19366 0.8562 0.55829 1.366 0.92291 1.8759 0 0-0.053467 0.032959-0.023743 0.011597 0.029663 1.4193 0.029663 2.8599 0.029663 5.2577-7.7528-0.62103-15.6-1.2496-23.846-1.9484z" fill="#124E39" data-index="10"/>
<path d="m1051.7 378.13c0.36047 56.884 0.31079 113.83 0.27564 170.78-0.015869 25.811-0.002685 51.622-0.002685 77.76h47.574c0-9.1808 0.001465-18.424-3.66e-4 -27.668-0.001709-8.6593-0.082031-17.32 0.054566-25.977 0.026245-1.6727 0.89441-3.3323 1.6859-5.207 0.1073 3.906-0.25256 8.0203-0.27307 12.136-0.071533 14.331-0.10767 28.663 0.024903 42.993 0.040771 4.3966-1.3926 6.2342-6.105 6.1392-13.159-0.26526-26.329-0.21277-39.491-0.020691-4.1152 0.060058-5.5237-1.3004-5.5189-5.4661 0.091797-80.321 0.062378-160.64 0.12463-240.96 0.001221-1.4816 0.81336-2.9625 1.6514-4.5094z" fill="#04060D" data-index="11"/>
<path d="m1008.1 627.78c-0.20575-1.8176 0.16559-3.5995 0.16687-5.3817 0.042542-58.507 0.049378-117.01-0.071899-175.98 0.82733 0.72885 2.5017 1.8474 2.6167 3.1082 0.36096 3.9574 0.13641 7.9682 0.13629 11.958-0.001221 53.368 0.024475 106.74-0.10742 160.1-0.005127 2.0765-1.523 4.1493-2.7405 6.1884z" fill="#24262A" data-index="12"/>
<path d="m799.35 484.11c9.7128-0.31943 19.69-0.31943 30.264-0.31943 0 1.9214-0.006653 3.5134 9.76e-4 5.1054 0.14758 30.784-0.080322 61.577 0.71771 92.344 0.1936 7.464 3.7698 14.84 5.9352 22.563-1.1234-0.75616-3.1033-1.5807-3.5493-2.9172-4.5441-13.617-6.1858-27.57-5.844-41.994 0.54431-22.975 0.054809-45.974 0.23407-68.961 0.031128-3.9991-1.1827-5.1525-5.1064-5.0765-7.4572 0.14441-14.925-0.25232-22.652-0.74371z" fill="#24262A" data-index="13"/>
<path d="m843.99 403.77c-4.3627 0.030335-8.7253 0.060669-13.515-0.13937-0.42664-0.23041-0.45538-0.66544-0.45538-0.66547 1.3994-0.32156 2.7972-0.91495 4.1982-0.92246 13.141-0.070556 26.284 0.084137 39.422-0.11307 4.18-0.062714 5.533 1.4348 5.4423 5.5283-0.21728 9.8094-0.074401 19.627-0.073791 29.441 4.27e-4 7.0974 0.002685 7.0991 6.8605 7.1003 10.646 0.001892 21.292-0.051208 31.937 0.056122 1.6657 0.016815 3.3241 0.75787 5.0867 1.5567-14.258 0.37299-28.617 0.3533-43.54 0.096131-0.73877-0.44623-0.95221-0.60074-1.2048-0.70099-0.05426-12.26-0.072876-24.519-0.21033-36.778-0.016235-1.4455-0.68469-2.8838-1.5844-4.538-0.8114-0.11597-1.0892-0.019379-1.3671 0.077179-6.3544 0.043121-12.709 0.086273-19.682-0.1319-1.1835-0.13086-1.7486-4.27e-4 -2.3137 0.12994-1.0685 0.04544-2.1369 0.090881-3.8556-0.15326-2.1485-0.14075-3.6467 0.008088-5.145 0.15689z" fill="#04060D" data-index="14"/>
<path d="m912.92 626.67c3.1767-0.82733 6.3533-1.6547 9.7506-2.5395v-36.29c-12.539 1.3779-25.391 5.2256-37.641-2.4818 3.7018 0.34851 7.5728 1.576 11.44 1.5634 8.1439-0.026551 16.283-0.80432 24.431-0.98407 1.0109-0.022339 2.941 1.6985 2.9582 2.6387 0.20685 11.304 0.23407 22.616-0.009338 33.919-0.026978 1.2546-1.7893 3.0953-3.1359 3.5773-3.5584 1.2737-7.3304 1.9501-11.763 2.9197-1.4443 0.063782-2.1429 0.072144-2.8416 0.080506-1.157 0.29169-2.314 0.58331-4.2545 0.91675-2.774 0.051147-4.7646 0.060608-6.7552 0.070007-3.0926-0.010864-6.1852-0.021729-10.171-0.022705-3.2065 0.011902-5.5201 0.013916-7.8337 0.01593-1.1594-0.31775-2.3188-0.6355-4.1879-0.9779-1.4078-0.019531-2.106-0.014404-2.8041-0.009278-0.92304-0.56995-1.8461-1.1399-2.9037-2.0053 0.60187-0.21899 1.3383-0.14264 2.6563 0.22376 0.96875 0.30432 1.3559 0.31873 1.743 0.33313 7.7841 0.40582 15.568 0.81158 23.966 1.3456 0.87128 0.17145 1.0839 0.092713 1.2512-0.10815 3.0329-0.3407 6.0658-0.68146 9.7965-0.94678 1.2656-0.20227 1.8333-0.4798 2.4011-0.75739 0.47436-0.054199 0.94879-0.1084 2.0165-0.058654 1.0258-0.071351 1.4584-0.24658 1.8909-0.42181z" fill="#04060D" data-index="15"/>
<path d="m829.63 403.05c0.38721-0.082123 0.41595 0.3529 0.37628 0.56726-0.17261 13.146-0.30627 26.078-0.43726 39.009-0.009765 0.95871-0.00122 1.9176-0.00122 3.3939-10.081 0-19.834 0-30.047 0.065582 0.96362-0.63437 2.3696-1.8922 3.8151-1.9395 6.9169-0.22614 13.853 0.041077 20.759-0.31717 1.037-0.053772 2.7621-2.47 2.7924-3.8241 0.23389-10.471 0.023133-20.951 0.22931-31.423 0.035949-1.8301 1.3843-3.6343 2.5139-5.5326z" fill="#24262A" data-index="16"/>
<path d="m961.8 446.3c0.33173 60.03 0.33911 120.33 0.48022 181.06-0.3396-0.8432-1.2252-2.1282-1.2267-3.4142-0.067566-58.325-0.059753-116.65-0.037231-174.97 3.05e-4 -0.80371 0.29962-1.6073 0.78375-2.6766z" fill="#04060D" data-index="17"/>
<path d="m882.96 582.73c-1.6542-4.0035-4.6659-8.3815-4.7332-12.804-0.4328-28.466-0.22131-56.941-0.22131-85.963 14.828 0 29.428 0 44.495-0.035828-1.2372 0.33429-2.9382 1.0104-4.645 1.025-11.32 0.096558-22.644 0.16794-33.962-0.016662-3.5416-0.05777-4.9964 0.73028-4.9705 4.6583 0.16406 24.806-0.17169 49.617 0.26379 74.417 0.1076 6.1284 2.4581 12.217 3.7734 18.72z" fill="#04060D" data-index="18"/>
<path d="m554.39 487.74c-9.9244-23.668-19.616-47.579-29.286-71.499-1.1713-2.8972-2.2263-5.8413-3.4868-9.0738 0.92529 0.90741 2.4279 1.9499 3.0116 3.3701 4.6566 11.331 9.1271 22.739 13.678 34.113 5.3983 13.493 10.831 26.972 16.199 40.476 0.27649 0.69546 0.092713 1.5739-0.11597 2.6126z" fill="#04060D" data-index="19"/>
<path d="m658.12 545.24c18.936 4.3278 37.937 8.9225 56.867 13.792 5.0649 1.3029 9.9139 3.4445 15.046 5.5059-7.295-1.3943-14.784-3.0513-22.251-4.8021-12.242-2.8704-24.521-5.608-36.677-8.809-4.4725-1.1777-8.6406-3.5107-12.985-5.6866z" fill="#04060D" data-index="20"/>
<path d="m1101.8 515.75c-0.18213 1.5436-0.67602 2.8022-1.1699 4.0607-0.297-0.073426-0.59387-0.14691-0.89087-0.2204 0-46.849 0-93.698-0.013916-141.01 0.42297 1.3578 1.2377 3.1767 1.2408 4.997 0.071899 41.99 0.049194 83.979 0.075317 125.97 0.001221 1.9724 0.29138 3.9445 0.75854 6.202z" fill="#04060D" data-index="21"/>
<path d="m734.15 499.25c15.216-0.40845 30.484-0.40845 47.012-0.40845-1.7557-6.6029-3.4137-12.839-5.0742-19.456 5.2828 2.3549 4.6097 7.967 5.2729 12.346 1.3932 9.1971 0.89124 9.2719-8.9717 9.2716-11.103-3.35e-4 -22.207 0.056458-33.308-0.05722-1.6304-0.016724-3.2525-0.83798-4.9303-1.6954z" fill="#04060D" data-index="22"/>
<path d="m1168.9 627.23c18.845-0.25201 37.506-0.25043 56.626-0.32568-0.6062 0.64465-1.6671 1.9869-2.7383 1.9951-17.116 0.13147-34.234 0.1156-51.351 0.028198-0.90942-0.0047-1.8141-0.94116-2.5363-1.6976z" fill="#04060D" data-index="23"/>
<path d="m729.06 590.47c-13.469 9.7971-36.896 9.418-51.13-0.98706 2.3002 0.56207 4.7213 1.6487 7.2578 2.2365 5.4456 1.2621 10.927 2.41 16.437 3.3455 9.5477 1.621 18.247-1.9582 27.435-4.5949z" fill="#04060D" data-index="24"/>
<path d="m556.83 627.25c17.192-0.25513 34.207-0.25238 51.69-0.2605-0.6449 0.6615-1.7527 1.9096-2.871 1.9191-15.251 0.12994-30.504 0.11877-45.756 0.025268-1.0829-0.006652-2.1603-0.92932-3.0629-1.6838z" fill="#04060D" data-index="25"/>
<path d="m635.14 470.67c-8.5176 15.102-10.582 30.885-5.0899 47.492 0.75629 2.2868 2.0492 4.3962 3.2745 6.8816-1.4716-2.0374-3.7095-4.1487-4.6809-6.7357-6.176-16.447-3.5835-32.105 4.9075-47.079 0.19824-0.34955 0.82794-0.45441 1.5888-0.55826z" fill="#04060D" data-index="26"/>
<path d="m360.11 627.29c16.591-0.37036 33.257-0.33704 50.388-0.33307-0.4574 0.6568-1.376 1.9339-2.3041 1.9409-15.361 0.11523-30.723 0.086242-46.085 0.008728-0.64349-0.003235-1.2831-0.79077-1.9987-1.6165z" fill="#04060D" data-index="27"/>
<path d="m509.87 377.73c-16.585 0.36758-33.228 0.32825-50.332 0.34479 0.43982-0.64868 1.336-1.9604 2.2423-1.9674 15.373-0.11822 30.747-0.089782 46.121-0.012237 0.63907 0.003235 1.2741 0.8006 1.9689 1.6349z" fill="#04060D" data-index="28"/>
<path d="m668.86 571.75c-15.922 0.35785-31.897 0.3078-48.335 0.30823 0.4469-0.64764 1.3514-1.9467 2.2662-1.954 14.705-0.11713 29.412-0.085876 44.118-0.004883 0.6347 0.003541 1.265 0.81018 1.9507 1.6506z" fill="#04060D" data-index="29"/>
<path d="m1099.8 377.84c-15.59 0.33276-31.203 0.25122-47.277 0.22159 0.61023-0.65079 1.6764-1.9546 2.7552-1.9651 13.893-0.13562 27.788-0.11426 41.682-0.023926 0.94238 0.006104 1.8789 0.88181 2.8402 1.7674z" fill="#04060D" data-index="30"/>
<path d="m457.2 381.69c-6.4632 16.93-13.263 33.778-20.205 50.959-0.29977-0.56592-0.84369-1.6194-0.55652-2.3432 6.1518-15.504 12.384-30.976 18.656-46.431 0.34665-0.85428 1.1685-1.5157 2.1056-2.1849z" fill="#04060D" data-index="31"/>
<path d="m443.05 542.38c1.7574-0.35565 3.4072-0.35339 5.4656-0.31805-3.0589 0.73486-4.5523 2.8682-5.711 6.2892-3.9948 11.795-8.5265 23.409-12.933 35.062-0.19846 0.52466-1.1754 0.75488-2.1031 0.94965 4.8493-13.99 10.012-27.807 15.282-41.983z" fill="#04060D" data-index="32"/>
<path d="m411.28 626.91c5.0051-13.82 10.365-27.691 15.847-41.88 0.19791 1.1096 0.74356 2.7145 0.27896 3.9348-4.6689 12.263-9.4928 24.467-14.328 36.666-0.20544 0.51831-0.94925 0.82312-1.7976 1.2789z" fill="#04060D" data-index="33"/>
<path d="m923.3 483.87c-0.34058-12.259-0.27924-24.595-0.26111-37.397 0.61877 0.32706 1.8502 1.1158 1.8571 1.9151 0.097352 11.32 0.043213 22.642-0.050476 33.963-0.003967 0.48389-0.74548 0.96167-1.5455 1.5196z" fill="#04060D" data-index="34"/>
<path d="m684.19 480.87c12.07-6.8773 24.73-6.4824 37.818-0.80548-1.394-0.049255-3.0991-0.20679-4.793-0.44354-5.7422-0.8027-11.496-2.3539-17.215-2.2278-4.6566 0.1026-9.2672 2.2079-13.904 3.402-0.47467 0.12225-0.99017 0.085816-1.9057 0.074829z" fill="#04060D" data-index="35"/>
<path d="m962.38 627.96c14.75-0.37598 29.68-0.36957 45.069-0.2951-0.52838 0.4884-1.514 1.2691-2.5039 1.2745-13.522 0.074402-27.045 0.049805-40.568 0.008484-0.60638-0.001831-1.2116-0.39484-1.9971-0.98792z" fill="#04060D" data-index="36"/>
<path d="m619.72 572.11c1.7703 5.7541 3.161 11.561 4.6904 17.691-5.09-1.5447-3.4143-6.9637-5.2279-10.579-0.93274-1.8591 0.043945-4.6762 0.53748-7.1128z" fill="#04060D" data-index="37"/>
<path d="m798.66 447.32c0.29626 11.364 0.34735 23.059 0.32336 35.219-0.35602-2.2672-0.87457-4.9985-0.87421-7.7297 0.001221-9.0523 0.18927-18.105 0.55084-27.489z" fill="#24262A" data-index="38"/>
<path d="m734.49 568.97c3.7648 4.9753 3.0684 10.403-0.003906 16.048-0.2608-5.0828-0.20306-10.361 0.003906-16.048z" fill="#04060D" data-index="39"/>
<path d="m729.04 486.27c1.676 3.6816 3.3465 7.7672 5.0829 12.254-1.6522-3.6825-3.3702-7.7664-5.0829-12.254z" fill="#04060D" data-index="40"/>
<path d="m675.08 490.05c1.9529-2.821 4.0867-5.3862 6.545-8.0475-1.9049 2.7037-4.1345 5.5035-6.545 8.0475z" fill="#04060D" data-index="41"/>
<path d="m672.96 583.67c-1.3361-3.3339-2.6779-7.0638-4.0797-11.198 1.3179 3.3314 2.696 7.0665 4.0797 11.198z" fill="#04060D" data-index="42"/>
<path d="m848.13 618.23c1.5382 0.62024 3.1141 1.6043 4.9396 2.7561-1.4676-0.68561-3.1848-1.5389-4.9396-2.7561z" fill="#24262A" data-index="43"/>
<path d="m625.52 593.03c1.0129 1.2684 1.8277 2.9021 2.8 4.7961-0.89441-1.3033-1.9463-2.867-2.8-4.7961z" fill="#04060D" data-index="44"/>
<path d="m637.23 531.05c1.3091 0.75171 2.565 1.8794 4.0005 3.2673-1.2315-0.79034-2.6425-1.8408-4.0005-3.2673z" fill="#04060D" data-index="45"/>
<path d="m677.84 588.88c-1.2946-0.79431-2.5634-1.9542-3.9455-3.4205 1.2482 0.81403 2.6097 1.9344 3.9455 3.4205z" fill="#04060D" data-index="46"/>
<path d="m877.36 630.33c2.0521-0.27136 4.3657-0.27338 7.1089-0.26672-1.9961 0.18445-4.4218 0.36023-7.1089 0.26672z" fill="#24262A" data-index="47"/>
<path d="m513.85 386.85c-0.74982-1.2021-1.4385-2.8109-2.2653-4.7194 0.68338 1.2378 1.5049 2.7752 2.2653 4.7194z" fill="#04060D" data-index="48"/>
<path d="m775.93 477.85c-0.7146-0.85959-1.4066-2.156-2.2634-3.7264 3.8472-1.2835 1.6779 1.9581 2.2634 3.7264z" fill="#04060D" data-index="49"/>
<path d="m653.74 542.84c1.4367 0.26874 2.7822 0.87225 4.2587 1.7741-1.3626-0.28088-2.8562-0.86005-4.2587-1.7741z" fill="#04060D" data-index="50"/>
<path d="m722.63 480.88c1.1848 0.2771 2.2026 0.90768 3.3556 1.8101-1.084-0.30429-2.3033-0.8804-3.3556-1.8101z" fill="#04060D" data-index="51"/>
<path d="m521.44 405.94c-0.72174-0.95578-1.2302-2.259-1.8635-3.8351 0.60913 0.98059 1.3429 2.2342 1.8635 3.8351z" fill="#04060D" data-index="52"/>
<path d="m519.45 400.94c-0.71979-0.93237-1.2296-2.2145-1.8632-3.7641 0.60852 0.95984 1.3408 2.187 1.8632 3.7641z" fill="#04060D" data-index="53"/>
<path d="m517.42 395.93c-0.72406-0.93027-1.2299-2.2044-1.8525-3.7468 0.61243 0.95554 1.3416 2.1792 1.8525 3.7468z" fill="#04060D" data-index="54"/>
<path d="m636.27 609.02c0.97614 0.4599 1.8886 1.2977 2.9327 2.4179-0.91095-0.4917-1.9537-1.2658-2.9327-2.4179z" fill="#04060D" data-index="55"/>
<path d="m843.3 614.07c0.94885 0.34308 1.8589 1.0646 2.9363 2.0251-0.88013-0.38953-1.9276-1.0181-2.9363-2.0251z" fill="#24262A" data-index="56"/>
<path d="m895.35 630.33c1.7398-0.2749 3.7304-0.28436 6.1459-0.28809-1.6818 0.18829-3.7885 0.37097-6.1459 0.28809z" fill="#24262A" data-index="57"/>
<path d="m853.8 621.89c1.441 0.27386 2.7853 0.83746 3.9617 1.7288-0.38812 0.33356-0.6084 0.33942-0.82874 0.34534-1.0765-0.59479-2.1531-1.1896-3.1329-2.0742z" fill="#24262A" data-index="58"/>
<path d="m515.41 390.94c-0.67542-0.83203-1.1329-1.993-1.6498-3.466 0.58301 0.83765 1.2253 1.9874 1.6498 3.466z" fill="#04060D" data-index="59"/>
<path d="m646.75 617.9c1.1639 0.26562 2.1929 0.86871 3.3575 1.7433-1.0737-0.2876-2.283-0.84668-3.3575-1.7433z" fill="#04060D" data-index="60"/>
<path d="m641.34 534.95c0.90582 0.20606 1.7398 0.78961 2.6984 1.655-0.84033-0.23785-1.8052-0.75769-2.6984-1.655z" fill="#04060D" data-index="61"/>
<path d="m731.73 588.06c-0.27649 0.72388-0.94458 1.4321-1.8723 2.2886 0.32044-0.66925 0.90057-1.4867 1.8723-2.2886z" fill="#04060D" data-index="62"/>
<path d="m628.66 598.97c0.64416 0.37726 1.0842 1.0669 1.6556 1.9648-0.53229-0.41193-1.196-1.0322-1.6556-1.9648z" fill="#04060D" data-index="63"/>
<path d="m836.69 605.01c0.6391 0.41644 1.1053 1.1453 1.6636 2.1193-0.55078-0.4389-1.1937-1.1229-1.6636-2.1193z" fill="#24262A" data-index="64"/>
<path d="m637.13 467.66c-0.11646 0.82745-0.5874 1.5539-1.2012 2.4998 0.18701-0.72058 0.51691-1.6607 1.2012-2.4998z" fill="#04060D" data-index="65"/>
<path d="m511.43 380.97c-0.61188-0.54779-1.0162-1.4329-1.4938-2.6037 0.51831 0.565 1.1098 1.4157 1.4938 2.6037z" fill="#04060D" data-index="66"/>
<path d="m458.74 378.11c-2.44e-4 0.85989-0.38263 1.7596-0.88232 2.9315 0.088501-0.78238 0.29434-1.837 0.88232-2.9315z" fill="#04060D" data-index="67"/>
<path d="m731.53 565.88c0.62738 0.043885 1.1291 0.45044 1.7705 1.0589-0.53894-0.097473-1.2176-0.39685-1.7705-1.0589z" fill="#04060D" data-index="68"/>
<path d="m644.13 537.19c0.59955-0.026611 1.2243 0.31171 2.056 0.82178-0.53894-0.037781-1.2849-0.24738-2.056-0.82178z" fill="#04060D" data-index="69"/>
<path d="m638.89 465.11c9.77e-4 0.61468-0.37299 1.2553-0.93683 2.1023 0.06073-0.55454 0.31128-1.3155 0.93683-2.1023z" fill="#04060D" data-index="70"/>
<path d="m838.53 607.95c0.56921 0.25384 1.0203 0.83423 1.5373 1.6856-0.50787-0.27246-1.0816-0.8158-1.5373-1.6856z" fill="#24262A" data-index="71"/>
<path d="m648.3 539.92c0.57001-0.10687 1.0752 0.10803 1.7006 0.57129-0.50836 0.082398-1.1369-0.083496-1.7006-0.57129z" fill="#04060D" data-index="72"/>
<path d="m630.66 601.94c0.59314 0.27612 1.0008 0.87048 1.4961 1.7225-0.50214-0.2962-1.0919-0.85028-1.4961-1.7225z" fill="#04060D" data-index="73"/>
<path d="m870.27 629.3c0.52948-0.23602 1.2277-0.24115 2.2733-0.23462-0.46991 0.16296-1.2873 0.31427-2.2733 0.23462z" fill="#24262A" data-index="74"/>
<path d="m906.28 629.31c0.52985-0.23865 1.2285-0.24701 2.2753-0.24707-0.47009 0.16473-1.2883 0.32111-2.2753 0.24707z" fill="#24262A" data-index="75"/>
<path d="m857.19 624.24c-0.033814-0.28461 0.18646-0.29047 0.73401-0.34228 0.90033 0.058167 1.4733 0.16235 2.2394 0.48663-0.77777 0.19153-1.7485 0.16296-2.9734-0.14435z" fill="#04060D" data-index="76"/>
<path d="m860.4 624.9c0.75464-0.15772 1.6161 0.04718 2.7127 0.48773-0.71185 0.11542-1.6589-0.004883-2.7127-0.48773z" fill="#04060D" data-index="77"/>
<path d="m641.65 613.82c0.47668 0.006897 0.89026 0.32568 1.4066 0.88599-0.42139-0.030273-0.94562-0.30218-1.4066-0.88599z" fill="#04060D" data-index="78"/>
<path d="m633.08 605.18c0.35754 0.029053 0.74658 0.38391 1.2861 0.96326-0.31781-0.062866-0.78626-0.3501-1.2861-0.96326z" fill="#04060D" data-index="79"/>
<path d="m846.63 616.87c0.46149-0.01825 0.88794 0.26117 1.4063 0.78216-0.41925-4.27e-4 -0.93024-0.24249-1.4063-0.78216z" fill="#24262A" data-index="80"/>
<path d="m635.07 528.21c0.36713 0.060913 0.7691 0.45014 1.3031 1.0953-0.33472-0.085022-0.80151-0.42602-1.3031-1.0953z" fill="#04060D" data-index="81"/>
<path d="m840.13 610.18c0.35516 0.034241 0.73334 0.37768 1.2119 0.96722-0.32941-0.055237-0.75916-0.35663-1.2119-0.96722z" fill="#24262A" data-index="82"/>
<path d="m624.61 590.99c0.34485 0.11395 0.51477 0.51361 0.79388 1.1038-0.25018-0.14563-0.60956-0.48175-0.79388-1.1038z" fill="#04060D" data-index="83"/>
<path d="m733.2 586.58c0.003967 0.47394-0.30914 0.90875-0.87238 1.4434 0.01831-0.42761 0.2868-0.95502 0.87238-1.4434z" fill="#04060D" data-index="84"/>
<path d="m863.33 625.85c0.35931-0.17139 0.73712-0.070862 1.387 0.14124-0.27478 0.11792-0.82166 0.12427-1.387-0.14124z" fill="#04060D" data-index="85"/>
<path d="m682.22 481.92c0.13538-0.34021 0.59076-0.69711 1.3456-1.1227-0.14221 0.32284-0.58392 0.71442-1.3456 1.1227z" fill="#04060D" data-index="86"/>
<path d="m646.75 538.84c0.50055-0.089844 0.92834 0.13654 1.4894 0.56531-0.43182 0.051941-0.99707-0.098511-1.4894-0.56531z" fill="#04060D" data-index="87"/>
<path d="m773.29 473.08c-0.31256 0.016601-0.43768-0.24908-0.55102-0.76352 0.17786 0.030457 0.4201 0.27377 0.55102 0.76352z" fill="#04060D" data-index="88"/>
<path d="m645.43 616.79c0.23028-0.23767 0.43231-0.14795 0.69775 0.16315 0.1015 0.13562-0.31256 0.3725-0.31256 0.3725s-0.37543-0.29401-0.38519-0.53564z" fill="#04060D" data-index="89"/>
<path d="m644.23 615.95c0.21252-0.11841 0.55243 0.036683 1.0568 0.42072-0.20014 0.10358-0.56476-0.021851-1.0568-0.42072z" fill="#04060D" data-index="90"/>
<path d="m648.86 455.76c0.13025 0.12778-0.13196 0.47339-0.34241 0.52594-0.06958-0.18286 0.071289-0.4183 0.34241-0.52594z" fill="#04060D" data-index="91"/>
<path d="m733.79 567.93c0.3031-0.1333 0.44745-0.018188 0.59631 0.28223 0.046447 0.13275-0.39764 0.24243-0.39764 0.24243s-0.31555-0.32874-0.19867-0.52466z" fill="#04060D" data-index="92"/>
<path d="m652.2 542.03c0.13605-0.15356 0.41242-0.09851 0.87622 0.051331-0.12146 0.12122-0.42926 0.14209-0.87622-0.051331z" fill="#04060D" data-index="93"/>
<path d="m1107.8 561.35c-0.13171-0.11969-0.060303-0.31348 0.04065-0.33533 0.20947 0.16132 0.31812 0.34448 0.42688 0.52759-0.11194-0.024231-0.22388-0.048401-0.46753-0.19226z" fill="#04060D" data-index="94"/>
<path d="m1106.8 562.41c-0.16894-0.28186-0.029541-0.47534 0.3208-0.7204 0.081299 0.19544 0.006836 0.48224-0.3208 0.7204z" fill="#04060D" data-index="95"/>
<path d="m1105.8 563.41c-0.15784-0.29083-3.66e-4 -0.49414 0.37817-0.75397 0.073608 0.20197-0.021118 0.50128-0.37817 0.75397z" fill="#04060D" data-index="96"/>
<path d="m1104.8 564.46c-0.16663-0.28619-0.005127-0.505 0.38623-0.79211 0.077881 0.19965-0.018066 0.50891-0.38623 0.79211z" fill="#04060D" data-index="97"/>
<path d="m730.25 565c0.18768-0.19562 0.48852-0.10889 0.9585 0.1676-0.15802 0.12653-0.49616 0.10156-0.9585-0.1676z" fill="#04060D" data-index="98"/>
<path d="m1103.8 565.57c-0.20581-0.2865-0.043457-0.5506 0.39661-0.89722 0.091553 0.19995-0.010376 0.534-0.39661 0.89722z" fill="#04060D" data-index="99"/>
<path d="m1102.9 566.59c-0.1001-0.24554 0.089234-0.52246 0.50684-0.91418 0.079712 0.21777-0.068847 0.55023-0.50684 0.91418z" fill="#04060D" data-index="100"/>
<path d="m1101.9 567.61c-0.098999-0.24414 0.090576-0.52704 0.51404-0.9231 0.080688 0.2193-0.072266 0.55182-0.51404 0.9231z" fill="#04060D" data-index="101"/>
<path d="m633.6 525.86c0.32678-0.036255 0.47235 0.24902 0.59009 0.81799-0.17566-0.027404-0.42346-0.28741-0.59009-0.81799z" fill="#04060D" data-index="102"/>
<path d="m673.79 584.97c-0.20673 0.037292-0.48181-0.18329-0.80377-0.67432 0.21393-0.041504 0.47461 0.18744 0.80377 0.67432z" fill="#04060D" data-index="103"/>
<path d="m648.08 456.32c0.034485 0.21274-0.21765 0.47153-0.73438 0.82507-0.027161-0.19653 0.21033-0.48779 0.73438-0.82507z" fill="#04060D" data-index="104"/>
<path d="m734 585.25c0.18805 0.19006 0.095398 0.49304-0.18683 0.96582-0.1239-0.16077-0.092041-0.50171 0.18683-0.96582z" fill="#04060D" data-index="105"/>
<path d="m636.46 529.83c0.25378-0.053833 0.49701 0.18298 0.81793 0.66638-0.2243 0.039123-0.52643-0.16834-0.81793-0.66638z" fill="#04060D" data-index="106"/>
<path d="m634.61 606.84c0.323-0.11261 0.52966 0.098144 0.75165 0.57465-0.22436 0.039733-0.51886-0.13257-0.75165-0.57465z" fill="#04060D" data-index="107"/>
<path d="m635.4 607.87c0.24774-0.079895 0.52283 0.1297 0.89294 0.586-0.22522 0.065673-0.54541-0.11542-0.89294-0.586z" fill="#04060D" data-index="108"/>
<path d="m639.33 611.92c0.22864-0.1192 0.534 0.041565 0.97485 0.42743-0.20905 0.10089-0.55359-0.023315-0.97485-0.42743z" fill="#04060D" data-index="109"/>
<path d="m841.63 611.92c0.32098-0.18451 0.51788-0.04303 0.68317 0.37903 0.038269 0.18329-0.43115 0.20538-0.43115 0.20538s-0.30634-0.35559-0.25201-0.58441z" fill="#24262A" data-index="110"/>
<path d="m640.44 612.81c0.25854-0.22168 0.49365-0.097535 0.80988 0.26733-0.18103 0.10584-0.48584 0.051757-0.80988-0.26733z" fill="#04060D" data-index="111"/>
<path d="m842.5 612.91c0.34393-0.18829 0.57648-0.003967 0.7608 0.52228-0.23029 0.061341-0.505-0.10254-0.7608-0.52228z" fill="#24262A" data-index="112"/>
<path d="m511.19 507.52c-6.7669-0.56659-13.58-1.5193-21.255-2.4868-2.8601 0.008789-4.8591 0.032379-6.8582 0.055969-0.45392-0.026642-0.90781-0.053223-1.7022-0.090271-7.9966-0.73358-15.653-1.4567-23.772-2.3658-0.46368-0.18591-0.49609-0.49289-0.49609-0.49289 8.6606-22.69 17.32-45.38 25.992-68.066 0.093475-0.24454 0.3334-0.43304 0.98554-1.2487 9.1355 25.087 18.098 49.697 27.106 74.694z" fill="#edebef" data-index="113"/>
<path d="m456.63 502.09c0.4718 0.058807 0.50421 0.36578 0.51126 0.51758-2.4891 0.4779-4.9803 1.0082-7.483 1.0698-2.2767 0.056061-4.5659-0.39712-7.6798-0.62469-1.8543 0.010559-2.8785 0.019927-3.9026 0.029327-1.0984-0.01709-2.1967-0.03421-3.9361-0.045838-0.64096 0.005524-1.1001 0.019043-1.1001 0.019043-0.45795-0.010376-0.91592-0.020782-1.7177-0.022522-7.1416-0.12488-13.939-0.25839-21.032-0.68869 7.969-0.57501 16.233-1.0513 24.497-1.0713 7.1231-0.017181 14.247 0.48556 21.843 0.81726z" fill="#124E39" data-index="114"/>
<path d="m522.47 537.21c-0.49567-0.069764-1.4869-0.36023-1.6888-0.93024-1.9674-5.5562-3.803-11.159-5.6125-17.156 2.433 5.6403 4.8025 11.688 7.3013 18.087z" fill="#0B1220" data-index="115"/>
<path d="m514.16 515.54c-0.98834-2.0665-2.0289-4.5031-3.0519-7.3459 1.0115 2.0544 2.0056 4.5151 3.0519 7.3459z" fill="#0B1220" data-index="116"/>
<path d="m515.28 518.51c-0.34045-0.43164-0.76172-1.1913-1.1676-2.3268 0.37256 0.41571 0.72968 1.2073 1.1676 2.3268z" fill="#0B1220" data-index="117"/>
<path d="m523.28 539.55c-0.30572-0.21539-0.67035-0.72522-0.89587-1.5712 0.37158 0.20154 0.60425 0.73914 0.89587 1.5712z" fill="#0B1220" data-index="118"/>
<path d="m844.4 403.87c1.0892-0.24753 2.5874-0.39636 4.3392-0.32132-1.141 0.28928-2.5355 0.35468-4.3392 0.32132z" fill="#24262A" data-index="119"/>
<path d="m912.69 626.63c-0.20288 0.22217-0.63544 0.3974-1.3033 0.50622 0.20099-0.2287 0.63739-0.39093 1.3033-0.50622z" fill="#24262A" data-index="120"/>
<path d="m853.32 403.86c0.2359-0.22815 0.80103-0.35858 1.5202-0.29468-0.29425 0.26038-0.74262 0.32642-1.5202 0.29468z" fill="#24262A" data-index="121"/>
<path d="m908.69 627.1c-0.24921 0.33356-0.81689 0.61108-1.705 0.81042 0.2486-0.341 0.81744-0.60376 1.705-0.81042z" fill="#24262A" data-index="122"/>
<path d="m871.39 627.41c-0.17535 0.19995-0.5625 0.18555-1.1701-0.03595 0.17248-0.19757 0.56537-0.18799 1.1701 0.03595z" fill="#24262A" data-index="123"/>
<path d="m896.66 628.74c-0.017578 0.31464-0.23016 0.39337-0.64404 0.26685-0.005493-0.32721 0.21124-0.42633 0.64404-0.26685z" fill="#24262A" data-index="124"/>
<path d="m878.11 445.28c0.29657-0.1709 0.51001-0.016388 0.78339 0.36511-0.20966 0.083801-0.51856-0.005097-0.78339-0.36511z" fill="#0B1220" data-index="125"/>
<path d="m875.24 403.86c0.024414-0.1897 0.30225-0.28628 0.67175-0.2334-0.078369 0.20847-0.24841 0.26749-0.67175 0.2334z" fill="#24262A" data-index="126"/>
<path d="m393.49 542.15c1.4937-0.69684 3.4037-1.9656 5.3726-2.0645 10.387-0.52203 20.79-0.74914 31.657-0.77429 0.46762 0.70697 0.46539 1.1097 0.46316 1.5125-12.35 0.4314-24.699 0.86273-37.493 1.3264z" fill="#124E39" data-index="127"/>
<path d="m431.31 540.9c-0.32922-0.47906-0.327-0.88178-0.32697-1.5863 0.63333 0.10516 1.2689 0.51208 1.9546 1.2238-0.39856 0.34949-0.84738 0.39416-1.6277 0.36249z" fill="#165C41" data-index="128"/>
<path d="m438.28 503.32c0.82159-0.25433 1.8457-0.2637 3.2521-0.25513-0.76169 0.17865-1.9056 0.33932-3.2521 0.25513z" fill="#186648" data-index="129"/>
<path d="m433.12 503.2c-0.080535-0.15302 0.37863-0.16654 0.60773-0.16022-0.023041 0.10864-0.27512 0.21094-0.60773 0.16022z" fill="#186648" data-index="130"/>
<path d="m483.33 505.35c1.7407-0.28314 3.7397-0.30673 6.164-0.29324-1.6851 0.20898-3.7954 0.38089-6.164 0.29324z" fill="#165C41" data-index="131"/>
</svg>