<svg version="1.1" id="Layer_1" xmlns="http://www.w3.org/2000/svg" xmlns:xlink="http://www.w3.org/1999/xlink" x="0px" y="0px" width="100%" viewBox="350 365 880 270" enable-background="new 0 0 1536 1024" xml:space="preserve">
<path fill="#FEFEFE" opacity="1.000000" stroke="none" d="
M1102.090088,516.032959 
	C1103.141357,515.370667 1104.444702,514.920593 1105.206787,514.015015 
	C1123.202148,492.630035 1141.181274,471.230804 1159.033203,449.726135 
	C1161.222534,447.088806 1163.373535,445.857635 1166.933838,445.901794 
	C1183.845947,446.111572 1200.762207,445.995575 1218.707153,445.995575 
	C1196.210938,472.610168 1174.358643,498.462982 1152.735229,524.044861 
	C1177.137329,558.215332 1201.417847,592.215515 1225.361084,626.599243 
	C1206.363281,626.981140 1187.702759,626.979553 1169.042236,626.978027 
	C1151.334473,602.221375 1133.626831,577.464783 1116.122192,552.991943 
	C1113.451660,555.456177 1110.804321,557.899231 1107.952026,560.687500 
	C1107.747192,561.032715 1107.675781,561.226501 1107.675781,561.226501 
	C1107.675781,561.226501 1107.408203,561.339478 1107.187988,561.560913 
	C1106.773193,561.936035 1106.633789,562.129517 1106.549683,562.362793 
	C1106.549683,562.362793 1106.459839,562.467346 1106.240356,562.610962 
	C1105.810669,562.916931 1105.653198,563.120239 1105.548584,563.364441 
	C1105.548584,563.364441 1105.460327,563.468933 1105.235352,563.624023 
	C1104.792969,563.956543 1104.631470,564.175354 1104.526001,564.435486 
	C1104.526001,564.435486 1104.519775,564.527649 1104.280273,564.667603 
	C1103.794556,565.020081 1103.632202,565.284180 1103.553711,565.599915 
	C1103.553711,565.599915 1103.840576,565.842529 1103.487793,565.816650 
	C1102.945679,566.067688 1102.756348,566.344604 1102.567017,566.621582 
	C1102.567017,566.621582 1102.783447,566.781555 1102.465820,566.789551 
	C1101.958374,567.080383 1101.768799,567.363281 1101.579102,567.646179 
	C1101.579102,567.646179 1101.898315,567.885681 1101.441528,567.957825 
	C1100.504883,569.695618 1099.636719,571.355164 1099.610474,573.027893 
	C1099.473877,581.684998 1099.554199,590.345459 1099.555908,599.004761 
	C1099.557739,608.248352 1099.556274,617.491943 1099.556274,626.672729 
	C1083.272949,626.672729 1067.547974,626.672729 1051.982056,626.672729 
	C1051.982056,600.534485 1051.968872,574.723572 1051.984741,548.912659 
	C1052.019897,491.962982 1052.069580,435.013306 1052.113403,378.063629 
	C1052.113403,378.063629 1052.031128,378.031708 1052.509277,378.020813 
	C1068.599854,378.091492 1084.212280,378.173035 1099.824707,378.254578 
	C1099.824707,378.254578 1099.849487,378.095276 1099.783447,378.568481 
	C1099.717529,425.890533 1099.717529,472.739319 1099.717529,519.588135 
	C1100.014526,519.661621 1100.311401,519.735107 1100.608398,519.808533 
	C1101.102295,518.549988 1101.596191,517.291443 1102.090088,516.032959 
z" data-index="1" style="opacity: 1; visibility: visible;"></path>
<path fill="#FEFEFE" opacity="1.000000" stroke="none" d="
M648.988342,455.888031 
	C667.352661,443.072693 688.092529,439.937927 709.872192,440.763153 
	C726.757202,441.402924 742.787415,445.169708 756.460022,455.322113 
	C762.445862,459.766907 766.943054,466.216705 772.460205,472.143250 
	C772.853088,472.832031 772.978210,473.097717 773.179504,473.327515 
	C773.179504,473.327515 773.243774,473.647400 773.538452,474.020203 
	C774.525085,475.689423 775.217041,476.985809 775.909058,478.282227 
	C775.909058,478.282227 775.858765,478.674194 775.974060,479.218140 
	C777.747437,485.997986 779.405457,492.233917 781.161133,498.836792 
	C764.634033,498.836792 749.365906,498.836792 734.097778,498.836792 
	C734.097778,498.836792 734.082031,498.938721 734.067444,498.531311 
	C732.382263,494.038330 730.711731,489.952789 729.041199,485.867249 
	C728.263794,484.954803 727.486389,484.042358 726.280396,482.774200 
	C724.834045,481.787872 723.816284,481.157288 722.798523,480.526672 
	C722.798523,480.526672 722.615417,480.277954 722.158936,480.099121 
	C708.920044,474.388062 696.259705,473.993134 683.771179,480.822235 
	C683.771179,480.822235 683.887329,480.850281 683.576538,480.860352 
	C682.810425,481.227325 682.355042,481.584229 681.899658,481.941162 
	C681.899658,481.941132 681.973572,481.985931 681.635193,482.041016 
	C679.163086,484.661255 677.029297,487.226440 674.895508,489.791626 
	C671.175598,497.399353 672.815918,504.397369 680.549683,507.227295 
	C690.699890,510.941345 701.291260,513.644714 711.877319,515.927429 
	C728.640320,519.541992 745.510620,522.653320 760.664001,531.241638 
	C774.788513,539.246826 782.611877,551.337830 784.003357,567.627197 
	C786.746460,599.738647 765.246826,620.358826 738.620911,627.937744 
	C713.166443,635.183228 687.873901,633.562561 662.853882,625.797302 
	C658.683105,624.502869 654.904419,621.945374 650.457764,619.673706 
	C648.941956,618.772766 647.912903,618.169678 646.883850,617.566528 
	C646.883850,617.566528 646.674805,617.167236 646.351562,616.991577 
	C645.864319,616.640503 645.662292,616.550781 645.422180,616.546753 
	C645.422180,616.546753 645.133423,616.759216 645.128296,616.448120 
	C644.783264,615.981934 644.443359,615.826843 644.103455,615.671814 
	C644.100586,615.327026 643.934265,615.104248 643.281555,614.733398 
	C642.545044,614.144531 642.131470,613.825745 641.717957,613.507019 
	C641.717957,613.507019 641.574646,613.333740 641.348877,613.126465 
	C640.930664,612.714233 640.695557,612.590088 640.417786,612.546814 
	C640.290894,612.663635 640.164062,612.780457 640.102539,612.509155 
	C639.862488,611.960266 639.557129,611.799500 639.251709,611.638733 
	C639.251709,611.638733 639.211792,611.762695 639.140808,611.456848 
	C638.157410,610.313171 637.244995,609.475403 636.332581,608.637573 
	C636.332581,608.637573 636.231384,608.786743 636.215149,608.496094 
	C635.923767,607.995972 635.648682,607.786377 635.373596,607.576782 
	C635.373596,607.576782 635.235291,607.782593 635.261475,607.492310 
	C635.135681,606.937622 634.929016,606.726868 634.667664,606.569702 
	C634.667664,606.569702 634.573242,606.482239 634.392822,606.200806 
	C633.823425,605.564575 633.434387,605.209717 633.045349,604.854858 
	C633.077454,604.517334 632.960693,604.243103 632.382996,603.717468 
	C631.663269,602.808350 631.255615,602.213989 630.847961,601.619690 
	C630.847961,601.619690 630.738708,601.306396 630.463501,601.015381 
	C629.748352,600.034790 629.308350,599.345154 628.868286,598.655518 
	C628.868286,598.655518 628.790039,598.291565 628.476807,597.929321 
	C627.348694,595.933289 626.533875,594.299561 625.719116,592.665771 
	C625.719116,592.665771 625.665222,592.448975 625.481689,592.175110 
	C625.128235,591.501526 624.958313,591.101868 624.788452,590.702148 
	C624.788452,590.702148 624.786194,590.367126 624.531250,589.922241 
	C622.885498,583.670776 621.494812,577.864319 620.104126,572.057800 
	C620.104126,572.057800 620.023560,572.026367 620.503296,572.015564 
	C636.958313,572.054749 652.933594,572.104797 668.908813,572.154785 
	C668.908813,572.154785 668.922791,572.053528 668.932007,572.462952 
	C670.283081,576.602295 671.624878,580.332214 672.966675,584.062134 
	C672.966675,584.062134 673.004150,584.013611 673.020691,584.288818 
	C673.312378,584.784607 673.587463,585.005188 673.862610,585.225708 
	C673.862610,585.225708 673.884583,585.126526 673.948730,585.445435 
	C675.281555,586.924255 676.550354,588.084106 677.819092,589.244019 
	C677.819092,589.244019 677.878906,589.128418 677.993408,589.455200 
	C692.169006,599.888611 715.595642,600.267700 729.440735,590.612732 
	C729.440735,590.612732 729.492249,590.521057 729.802612,590.358948 
	C730.780945,589.488525 731.449036,588.780273 732.117065,588.071960 
	C732.117065,588.071960 732.028442,588.035217 732.301208,587.977661 
	C732.887085,587.485291 733.200195,587.050476 733.513306,586.615601 
	C733.513306,586.615601 733.572815,586.499023 733.771240,586.269287 
	C734.096130,585.746948 734.188782,585.443970 734.247742,585.130676 
	C734.247742,585.130676 734.138184,585.108337 734.469482,584.967773 
	C737.554443,579.378113 738.250916,573.950012 734.635376,568.565796 
	C734.635376,568.565796 734.534119,568.455994 734.435425,568.269897 
	C734.234253,567.916199 734.089905,567.801086 733.903687,567.738464 
	C733.903687,567.738464 733.809326,567.331421 733.483459,567.034485 
	C732.655945,566.331055 732.154236,565.924500 731.652588,565.518005 
	C731.652588,565.518005 731.527588,565.410461 731.277649,565.215088 
	C730.737915,564.894775 730.437073,564.808044 730.125183,564.759521 
	C730.125183,564.759521 730.106689,564.867554 729.975464,564.548828 
	C724.896118,562.473511 720.047058,560.331909 714.982178,559.028992 
	C696.052246,554.159668 677.051697,549.565002 658.077637,544.867249 
	C658.077637,544.867249 658.037903,544.955933 657.951416,544.638184 
	C656.519348,543.716919 655.173889,543.113403 653.828369,542.509827 
	C653.828369,542.509827 653.613464,542.224670 653.249878,542.102966 
	C652.608826,541.931763 652.332458,541.876709 652.057251,541.816040 
	C651.608398,541.493774 651.159607,541.171448 650.296997,540.545349 
	C649.378113,540.026611 648.872925,539.811707 648.367737,539.596802 
	C648.240234,539.708984 648.112793,539.821167 648.044434,539.566772 
	C647.675781,538.973694 647.247986,538.747314 646.820251,538.520874 
	C646.820251,538.520874 646.659607,538.289001 646.320923,538.066589 
	C645.357483,537.505920 644.732727,537.167603 644.108032,536.829346 
	C644.108032,536.829346 644.070068,536.924927 643.993286,536.624023 
	C643.082458,535.739563 642.248474,535.156006 641.414429,534.572449 
	C641.277100,534.713318 641.139771,534.854187 641.028442,534.524292 
	C639.798523,532.925781 638.542603,531.798096 637.286621,530.670349 
	C637.286621,530.670349 637.240662,530.787537 637.222290,530.520142 
	C636.960815,530.015991 636.717590,529.779175 636.474426,529.542419 
	C636.389282,529.690918 636.304199,529.839355 636.230347,529.518799 
	C635.839600,528.660645 635.437622,528.271423 635.035645,527.882263 
	C635.067261,527.547424 634.958557,527.266968 634.413696,526.744812 
	C634.072327,526.112427 633.926758,525.827148 633.681152,525.592834 
	C633.681152,525.592834 633.594116,525.461670 633.366638,525.104431 
	C632.094666,522.555664 630.801758,520.446228 630.045471,518.159424 
	C624.553345,501.552979 626.617798,485.769226 635.467773,470.782837 
	C635.467773,470.782837 635.685913,470.629181 635.877686,470.285522 
	C636.540405,469.215454 637.011353,468.489044 637.482300,467.762634 
	C637.482300,467.762634 637.660706,467.623077 637.904053,467.316895 
	C638.521423,466.370056 638.895386,465.729431 639.269409,465.088806 
	C641.784302,462.670990 644.299133,460.253143 647.210327,457.441589 
	C647.858887,456.789093 648.111023,456.530304 648.363159,456.271515 
	C648.363159,456.271515 648.223267,456.209564 648.474731,456.221619 
	C648.726135,456.233643 648.988342,455.888031 648.988342,455.888031 
z" data-index="2" style="opacity: 1; visibility: visible;"></path>
<path fill="#FEFEFE" opacity="1.000000" stroke="none" d="
M554.148682,487.983002 
	C566.597900,519.256958 579.055969,550.527405 591.492432,581.806519 
	C597.375854,596.604004 603.217834,611.417969 608.567017,626.612915 
	C591.040588,626.998596 574.025757,626.995850 557.010925,626.993103 
	C547.033875,601.051025 537.053101,575.110291 527.084961,549.164795 
	C525.961731,546.241211 524.909241,543.290466 523.552612,540.115601 
	C523.281311,539.878784 523.334778,539.845825 523.275879,539.551392 
	C522.984253,538.719360 522.751587,538.181763 522.550842,537.633911 
	C522.582703,537.623718 522.602722,537.559875 522.473389,537.209473 
	C519.974548,530.811157 517.605042,524.763184 515.221558,518.793213 
	C515.207642,518.871094 515.361633,518.834412 515.280762,518.506470 
	C514.842834,517.386963 514.485718,516.595398 514.113892,515.858398 
	C514.099182,515.913025 514.212097,515.906860 514.159912,515.536804 
	C513.113586,512.706055 512.119507,510.245361 511.111725,507.851257 
	C511.097992,507.917847 511.233795,507.910522 511.187378,507.524414 
	C502.178741,482.527618 493.216522,457.916992 484.080994,432.830383 
	C483.428864,433.645996 483.188934,433.834503 483.095459,434.079041 
	C474.424438,456.764832 465.764496,479.454895 456.632141,502.085907 
	C449.036591,501.754211 441.912292,501.251465 434.789215,501.268646 
	C426.524475,501.288605 418.260834,501.764923 409.783875,501.975433 
	C409.570984,501.907715 409.124512,501.923676 409.124512,501.923676 
	C418.371246,479.186737 427.617981,456.449799 437.001160,433.013855 
	C443.937195,415.467041 450.736786,398.619232 457.536377,381.771423 
	C457.536377,381.771423 457.711945,381.577148 457.845703,381.174988 
	C458.361877,379.873199 458.744263,378.973541 459.126678,378.073883 
	C459.126678,378.073883 459.041748,378.043396 459.518219,378.029907 
	C476.637512,378.055786 493.280334,378.095123 509.923157,378.134460 
	C509.923157,378.134460 509.952087,378.048431 509.982422,378.349091 
	C510.417114,379.534851 510.821472,380.419922 511.225830,381.305023 
	C511.225830,381.305023 511.239410,381.608429 511.480774,382.019501 
	C512.410767,384.039368 513.099426,385.648163 513.788086,387.256958 
	C513.788086,387.256958 513.823730,387.140991 513.823730,387.465942 
	C514.281372,388.951904 514.738892,390.112854 515.196411,391.273834 
	C515.196411,391.273834 515.180969,391.652069 515.432373,392.053223 
	C516.189636,393.728577 516.695496,395.002747 517.201355,396.276917 
	C517.201355,396.276917 517.191223,396.650543 517.449158,397.048035 
	C518.216919,398.727631 518.726746,400.009796 519.236572,401.291962 
	C519.236572,401.291962 519.238342,401.603851 519.468079,401.992065 
	C520.206360,403.683502 520.714844,404.986725 521.223328,406.289917 
	C521.223328,406.289917 521.229736,406.620575 521.497925,407.047913 
	C522.875122,410.397644 523.930054,413.341797 525.101379,416.238983 
	C534.771545,440.158600 544.463440,464.069458 554.148682,487.983002 
z" data-index="3" style="opacity: 1; visibility: visible;"></path>
<path fill="#FEFEFE" opacity="1.000000" stroke="none" d="
M867.063538,626.767822 
	C866.569153,626.509460 866.074829,626.251099 865.014160,625.937256 
	C864.070190,625.781250 863.692383,625.680725 863.314636,625.580200 
	C863.314636,625.580200 863.079285,625.774841 862.977539,625.465027 
	C862.014404,624.950317 861.152954,624.745422 860.291565,624.540588 
	C860.291565,624.540588 860.220032,624.675476 860.095581,624.421814 
	C859.398132,624.063965 858.825134,623.959778 858.092651,623.573853 
	C856.588989,622.728516 855.244751,622.164917 853.900513,621.601257 
	C853.900513,621.601257 853.711182,621.249023 853.266968,621.035522 
	C851.246948,619.838013 849.671021,618.853943 848.095154,617.869873 
	C848.095154,617.869873 848.026978,617.983643 847.985352,617.698730 
	C847.517151,617.134338 847.090698,616.854919 846.664185,616.575562 
	C846.664185,616.575562 846.551636,616.432983 846.309509,616.142334 
	C845.157349,615.130127 844.247314,614.408630 843.337280,613.687073 
	C843.337280,613.687073 843.084595,613.912720 843.152771,613.560913 
	C843.080933,612.908081 842.848389,612.723755 842.523315,612.656128 
	C842.523315,612.656128 842.439697,612.567993 842.357910,612.342346 
	C842.149170,611.877991 841.952271,611.736511 841.685608,611.692139 
	C841.685608,611.692139 841.596680,611.513916 841.416992,611.207642 
	C840.859009,610.557922 840.480835,610.214478 840.102661,609.871033 
	C840.102661,609.871033 840.019287,609.971741 840.009521,609.667236 
	C839.548706,608.782410 839.097595,608.202026 838.646484,607.621704 
	C838.646484,607.621704 838.554871,607.491028 838.406372,607.189453 
	C837.791748,606.158936 837.325562,605.430054 836.859375,604.701172 
	C836.859375,604.701172 836.770325,604.304626 836.446655,603.902466 
	C834.102234,596.083740 830.526062,588.707581 830.332458,581.243591 
	C829.534424,550.476807 829.762329,519.683411 829.614746,488.899780 
	C829.607117,487.307800 829.613770,485.715759 829.613770,483.794373 
	C819.039734,483.794373 809.062927,483.794373 799.086182,483.794373 
	C799.086182,483.794373 799.036316,483.391663 799.046631,482.735321 
	C799.005798,470.383362 798.954712,458.687775 798.903564,446.992157 
	C798.903564,446.992157 799.023926,446.578430 799.504700,446.298340 
	C809.738586,446.018280 819.491699,446.018280 829.572449,446.018280 
	C829.572449,444.542023 829.563904,443.583099 829.573669,442.624390 
	C829.704651,429.692719 829.838318,416.761047 830.437561,403.845428 
	C835.266541,403.831146 839.629211,403.800812 844.400940,403.869202 
	C846.204590,403.902557 847.599121,403.837158 849.390381,403.837463 
	C850.855530,403.857727 851.923950,403.812286 853.321655,403.864624 
	C854.099243,403.896362 854.547607,403.830322 855.460205,403.831238 
	C862.278992,403.855072 868.633484,403.811920 875.241333,403.861938 
	C875.664673,403.896027 875.834717,403.837006 876.446655,403.841064 
	C877.254639,405.345795 877.923096,406.784058 877.939331,408.229584 
	C878.076782,420.488190 878.095398,432.748138 878.105713,445.278809 
	C878.370544,445.638824 878.679443,445.727722 879.453735,445.881409 
	C894.277893,445.965820 908.636658,445.985504 922.995422,446.005219 
	C922.995422,446.005219 923.000000,446.000000 923.040527,446.468719 
	C923.019714,459.273499 922.958374,471.609558 922.896973,483.945618 
	C922.896973,483.945618 922.969482,483.971069 922.504028,483.968506 
	C907.438293,483.965912 892.838074,483.965912 878.010254,483.965912 
	C878.010254,512.987854 877.798767,541.463196 878.231567,569.928711 
	C878.298828,574.351440 881.310547,578.729431 882.960693,583.128113 
	C883.410583,583.716797 883.860474,584.305481 884.753296,585.286377 
	C897.279297,593.068787 910.131348,589.221130 922.669922,587.843201 
	C922.669922,600.173157 922.669922,612.094177 922.669922,624.133423 
	C919.272644,625.018250 916.096008,625.845581 912.689697,626.625977 
	C912.023743,626.741272 911.587341,626.903503 910.793030,627.028320 
	C909.960693,627.044983 909.486267,627.099182 908.693359,627.097412 
	C907.805847,627.304077 907.237000,627.566833 906.290527,627.832520 
	C902.880127,628.176086 899.847229,628.516846 896.664551,628.743774 
	C896.231750,628.584290 896.015015,628.683411 895.407104,628.882446 
	C887.165588,628.431702 879.381470,628.025940 871.385620,627.405762 
	C870.780884,627.181824 870.388000,627.172241 869.633911,627.079834 
	C868.536316,626.920593 867.799927,626.844238 867.063538,626.767822 
z" data-index="4" style="opacity: 1; visibility: visible;"></path>
<path fill="#FEFEFE" opacity="1.000000" stroke="none" d="
M962.122925,446.035950 
	C977.132263,446.008301 992.141541,445.980652 1007.759399,446.413300 
	C1008.355652,505.381042 1008.348816,563.888550 1008.306274,622.395996 
	C1008.304993,624.178223 1007.933655,625.960144 1007.734863,627.742249 
	C1007.734924,627.742249 1007.827698,627.854309 1007.408875,627.725708 
	C992.060303,627.590759 977.130493,627.584351 962.200745,627.578003 
	C962.200745,627.578003 962.158386,627.829468 962.151733,627.376709 
	C962.137695,566.627991 962.130310,506.331940 962.122925,446.035950 
z" data-index="5" style="opacity: 1; visibility: visible;"></path>
<path fill="#FEFEFE" opacity="1.000000" stroke="none" d="
M360.037170,626.888855 
	C366.143707,611.335510 372.227142,595.773010 378.364197,580.231689 
	C383.179779,568.036743 388.061676,555.868042 392.977814,543.135986 
	C393.041473,542.584351 393.046021,542.185974 393.489471,542.153748 
	C406.282623,541.690125 418.632324,541.258789 431.313477,540.903687 
	C432.093750,540.935364 432.542572,540.890686 433.436432,540.931274 
	C436.588257,541.015076 439.295074,541.013672 442.248230,541.110779 
	C442.716583,541.478760 442.938568,541.748352 443.053009,542.375854 
	C437.782928,556.551147 432.620392,570.368530 427.457855,584.185974 
	C427.457855,584.185974 427.252563,584.408875 427.128082,584.877197 
	C421.643250,599.216980 416.282928,613.088501 410.922577,626.959961 
	C410.922577,626.959961 410.982361,626.999878 410.507996,626.994385 
	C393.368164,626.955505 376.702667,626.922180 360.037170,626.888855 
z" data-index="6"></path>
<path fill="#EABB58" opacity="1.000000" stroke="none" d="
M966.911011,369.816772 
	C986.494568,359.645142 1008.882080,369.076202 1015.144409,387.855865 
	C1019.355103,400.482849 1015.714172,414.138000 1005.693604,422.700073 
	C995.116577,431.737549 979.946472,433.344666 967.480713,426.748169 
	C956.340698,420.853210 949.574890,407.836121 950.704651,395.095673 
	C951.695374,383.923767 957.371216,375.879456 966.911011,369.816772 
z" data-index="7"></path>
<path fill="#186648" opacity="1.000000" stroke="none" d="
M442.001831,541.012329 
	C439.295074,541.013672 436.588257,541.015076 433.386169,540.626404 
	C432.255371,539.829468 431.619843,539.422546 430.516663,539.013184 
	C419.651855,539.340088 409.249542,539.567200 398.862061,540.089233 
	C396.893219,540.188171 394.983185,541.456909 393.046021,542.185974 
	C393.046021,542.185974 393.041473,542.584351 392.960327,542.765503 
	C382.309082,545.465271 372.289673,548.978882 364.529388,557.932190 
	C366.124939,552.189819 367.600494,546.410706 369.344147,540.713684 
	C371.961151,532.163330 374.506165,523.572937 377.642853,515.210083 
	C378.639435,512.553040 381.008179,509.325928 383.467255,508.501160 
	C391.548584,505.790588 399.959595,504.062836 408.684204,501.940582 
	C409.124512,501.923676 409.570984,501.907715 410.079010,502.272217 
	C417.384766,502.770233 424.182465,502.903748 430.941589,503.392090 
	C429.317780,505.300537 426.745026,506.643921 426.360016,508.452942 
	C425.635529,511.857086 425.298859,515.817322 426.356415,519.035095 
	C429.113190,527.423157 429.173737,538.170898 441.510223,539.671204 
	C441.725281,539.697388 441.840210,540.546936 442.001831,541.012329 
z" data-index="8" style="opacity: 1;"></path>
<path fill="#165C41" opacity="1.000000" stroke="none" d="
M442.248230,541.110779 
	C441.840210,540.546936 441.725281,539.697388 441.510223,539.671204 
	C429.173737,538.170898 429.113190,527.423157 426.356415,519.035095 
	C425.298859,515.817322 425.635529,511.857086 426.360016,508.452942 
	C426.745026,506.643921 429.317780,505.300537 431.285461,503.383453 
	C432.125854,503.030365 432.583832,503.040771 433.122314,503.204163 
	C433.454926,503.254883 433.707001,503.152588 434.371002,503.038452 
	C435.881287,503.043732 436.979645,503.060852 438.280579,503.322876 
	C439.627106,503.407074 440.771027,503.246399 442.362915,503.066589 
	C445.094574,503.276184 447.383759,503.729370 449.660431,503.673309 
	C452.163147,503.611694 454.654266,503.081390 457.607056,502.789398 
	C465.719788,503.546631 473.375885,504.269775 480.568787,504.996643 
	C475.550385,505.000366 470.995209,505.000366 466.637787,505.000366 
	C467.884125,509.507690 469.237549,514.302002 470.532013,519.112244 
	C471.804840,523.842285 472.871918,528.632812 474.295471,533.315857 
	C475.925995,538.679688 480.781158,541.852112 486.480347,542.038025 
	C490.692627,542.175415 494.891357,542.728638 499.096130,543.096680 
	C482.685089,542.739258 466.274048,542.381897 448.986511,542.024597 
	C446.460175,542.022461 444.810364,542.020203 443.160553,542.017944 
	C442.938568,541.748352 442.716583,541.478760 442.248230,541.110779 
z" data-index="9" style="opacity: 1;"></path>
<path fill="#124E39" opacity="1.000000" stroke="none" d="
M499.494446,543.166748 
	C494.891357,542.728638 490.692627,542.175415 486.480347,542.038025 
	C480.781158,541.852112 475.925995,538.679688 474.295471,533.315857 
	C472.871918,528.632812 471.804840,523.842285 470.532013,519.112244 
	C469.237549,514.302002 467.884125,509.507690 466.637787,505.000366 
	C470.995209,505.000366 475.550385,505.000366 480.909271,505.007080 
	C482.166901,505.040405 482.620789,505.066986 483.333008,505.353149 
	C485.701630,505.440826 487.811951,505.268921 490.358124,505.074707 
	C497.607239,506.005127 504.420502,506.957825 511.233795,507.910522 
	C511.233795,507.910522 511.097992,507.917847 511.094299,508.257507 
	C512.131042,511.033752 513.171570,513.470276 514.212097,515.906860 
	C514.212097,515.906860 514.099182,515.913025 514.098450,516.234314 
	C514.519043,517.315186 514.940308,518.074829 515.361633,518.834412 
	C515.361633,518.834412 515.207642,518.871094 515.158081,519.200806 
	C516.981628,525.120117 518.817200,530.723083 520.784607,536.279236 
	C520.986450,536.849243 521.977722,537.139709 522.602722,537.559875 
	C522.602722,537.559875 522.582703,537.623718 522.411865,537.969971 
	C522.605530,538.826172 522.970154,539.335999 523.334778,539.845825 
	C523.334778,539.845825 523.281311,539.878784 523.311035,539.857422 
	C523.340698,541.276733 523.340698,542.717346 523.340698,545.115112 
	C515.587891,544.494080 507.740295,543.865479 499.494446,543.166748 
z" data-index="10" style="opacity: 1; visibility: visible;"></path>
<path fill="#04060D" opacity="1.000000" stroke="none" d="
M1051.709106,378.129272 
	C1052.069580,435.013306 1052.019897,491.962982 1051.984741,548.912659 
	C1051.968872,574.723572 1051.982056,600.534485 1051.982056,626.672729 
	C1067.547974,626.672729 1083.272949,626.672729 1099.556274,626.672729 
	C1099.556274,617.491943 1099.557739,608.248352 1099.555908,599.004761 
	C1099.554199,590.345459 1099.473877,581.684998 1099.610474,573.027893 
	C1099.636719,571.355164 1100.504883,569.695618 1101.296387,567.820923 
	C1101.403687,571.726929 1101.043823,575.841248 1101.023315,579.957275 
	C1100.951782,594.288086 1100.915649,608.620300 1101.048218,622.950317 
	C1101.088989,627.346924 1099.655640,629.184509 1094.943237,629.089539 
	C1081.783936,628.824280 1068.613892,628.876770 1055.452026,629.068848 
	C1051.336792,629.128906 1049.928345,627.768433 1049.933105,623.602722 
	C1050.024902,543.281372 1049.995483,462.959991 1050.057739,382.638641 
	C1050.058960,381.157074 1050.871094,379.676147 1051.709106,378.129272 
z" data-index="11" style="visibility: visible;"></path>
<path fill="#24262A" opacity="1.000000" stroke="none" d="
M1008.139404,627.777710 
	C1007.933655,625.960144 1008.304993,624.178223 1008.306274,622.395996 
	C1008.348816,563.888550 1008.355652,505.381042 1008.234375,446.418701 
	C1009.061707,447.147552 1010.736084,448.266113 1010.851074,449.526947 
	C1011.212036,453.484314 1010.987488,457.495148 1010.987366,461.485291 
	C1010.986145,514.853394 1011.011841,568.221558 1010.879944,621.589355 
	C1010.874817,623.665894 1009.356934,625.738647 1008.139404,627.777710 
z" data-index="12" style="opacity: 1;"></path>
<path fill="#24262A" opacity="1.000000" stroke="none" d="
M799.350098,484.113800 
	C809.062927,483.794373 819.039734,483.794373 829.613770,483.794373 
	C829.613770,485.715759 829.607117,487.307800 829.614746,488.899780 
	C829.762329,519.683411 829.534424,550.476807 830.332458,581.243591 
	C830.526062,588.707581 834.102234,596.083740 836.267639,603.806396 
	C835.144287,603.050232 833.164307,602.225708 832.718323,600.889221 
	C828.174255,587.272644 826.532532,573.319397 826.874329,558.894897 
	C827.418640,535.919434 826.929138,512.920898 827.108398,489.933990 
	C827.139526,485.934906 825.925720,484.781494 822.002014,484.857513 
	C814.544861,485.001923 807.077209,484.605194 799.350098,484.113800 
z" data-index="13" style="visibility: visible;"></path>
<path fill="#04060D" opacity="1.000000" stroke="none" d="
M843.991882,403.770477 
	C839.629211,403.800812 835.266541,403.831146 830.477234,403.631104 
	C830.050598,403.400696 830.021851,402.965668 830.021851,402.965637 
	C831.421204,402.644073 832.819031,402.050690 834.220093,402.043182 
	C847.360718,401.972626 860.503784,402.127319 873.641846,401.930115 
	C877.821838,401.867401 879.174805,403.364960 879.084106,407.458374 
	C878.866821,417.267761 879.009705,427.085205 879.010315,436.899384 
	C879.010742,443.996735 879.013000,443.998444 885.870789,443.999664 
	C896.516663,444.001556 907.163147,443.948456 917.807922,444.055786 
	C919.473633,444.072601 921.132019,444.813660 922.894653,445.612518 
	C908.636658,445.985504 894.277893,445.965820 879.354492,445.708649 
	C878.615723,445.262421 878.402283,445.107910 878.149658,445.007660 
	C878.095398,432.748138 878.076782,420.488190 877.939331,408.229584 
	C877.923096,406.784058 877.254639,405.345795 876.354980,403.691620 
	C875.543579,403.575653 875.265747,403.672241 874.987915,403.768799 
	C868.633484,403.811920 862.278992,403.855072 855.306152,403.636902 
	C854.122681,403.506042 853.557556,403.636475 852.992432,403.766846 
	C851.923950,403.812286 850.855530,403.857727 849.136841,403.613586 
	C846.988342,403.472839 845.490112,403.621674 843.991882,403.770477 
z" data-index="14" style="visibility: visible;"></path>
<path fill="#04060D" opacity="1.000000" stroke="none" d="
M912.919312,626.672913 
	C916.096008,625.845581 919.272644,625.018250 922.669922,624.133423 
	C922.669922,612.094177 922.669922,600.173157 922.669922,587.843201 
	C910.131348,589.221130 897.279297,593.068787 885.028748,585.361389 
	C888.730530,585.709900 892.601501,586.937439 896.468506,586.924805 
	C904.612366,586.898254 912.751831,586.120483 920.899597,585.940735 
	C921.910461,585.918396 923.840576,587.639221 923.857788,588.579468 
	C924.064636,599.883789 924.091858,611.195435 923.848450,622.498291 
	C923.821472,623.752930 922.059143,625.593628 920.712585,626.075562 
	C917.154175,627.349243 913.382141,628.025635 908.949463,628.995239 
	C907.505127,629.059021 906.806519,629.067383 906.107849,629.075745 
	C904.950867,629.367432 903.793823,629.659058 901.853333,629.992493 
	C899.079285,630.043640 897.088684,630.053101 895.098145,630.062500 
	C892.005554,630.051636 888.912964,630.040771 884.927429,630.039795 
	C881.720886,630.051697 879.407288,630.053711 877.093689,630.055725 
	C875.934326,629.737976 874.774902,629.420227 872.905823,629.077820 
	C871.498047,629.058289 870.799866,629.063416 870.101746,629.068542 
	C869.178711,628.498596 868.255615,627.928650 867.198059,627.063232 
	C867.799927,626.844238 868.536316,626.920593 869.854370,627.286987 
	C870.823120,627.591309 871.210266,627.605713 871.597412,627.620117 
	C879.381470,628.025940 887.165588,628.431702 895.563110,628.965698 
	C896.434387,629.137146 896.646973,629.058411 896.814331,628.857544 
	C899.847229,628.516846 902.880127,628.176086 906.610840,627.910767 
	C907.876465,627.708496 908.444153,627.430969 909.011902,627.153381 
	C909.486267,627.099182 909.960693,627.044983 911.028442,627.094727 
	C912.054260,627.023376 912.486816,626.848145 912.919312,626.672913 
z" data-index="15" style="visibility: visible;"></path>
<path fill="#24262A" opacity="1.000000" stroke="none" d="
M829.634644,403.047791 
	C830.021851,402.965668 830.050598,403.400696 830.010925,403.615051 
	C829.838318,416.761047 829.704651,429.692719 829.573669,442.624390 
	C829.563904,443.583099 829.572449,444.542023 829.572449,446.018280 
	C819.491699,446.018280 809.738586,446.018280 799.524963,446.083862 
	C800.488586,445.449493 801.894531,444.191620 803.340027,444.144348 
	C810.256897,443.918213 817.193115,444.185425 824.099060,443.827179 
	C825.136108,443.773407 826.861206,441.357178 826.891479,440.003052 
	C827.125366,429.532440 826.914612,419.052185 827.120789,408.580414 
	C827.156738,406.750336 828.505127,404.946106 829.634644,403.047791 
z" data-index="16" style="visibility: visible;"></path>
<path fill="#04060D" opacity="1.000000" stroke="none" d="
M961.798584,446.301575 
	C962.130310,506.331940 962.137695,566.627991 962.278809,627.366211 
	C961.939209,626.523010 961.053589,625.238037 961.052063,623.952026 
	C960.984497,565.627441 960.992310,507.302826 961.014832,448.978210 
	C961.015137,448.174500 961.314453,447.370880 961.798584,446.301575 
z" data-index="17" style="visibility: visible;"></path>
<path fill="#04060D" opacity="1.000000" stroke="none" d="
M882.964722,582.732910 
	C881.310547,578.729431 878.298828,574.351440 878.231567,569.928711 
	C877.798767,541.463196 878.010254,512.987854 878.010254,483.965912 
	C892.838074,483.965912 907.438293,483.965912 922.505005,483.930084 
	C921.267761,484.264374 919.566772,484.940521 917.860046,484.955078 
	C906.539612,485.051636 895.216187,485.123016 883.897949,484.938416 
	C880.356384,484.880646 878.901550,485.668701 878.927490,489.596680 
	C879.091553,514.402344 878.755798,539.214111 879.191284,564.013245 
	C879.298889,570.141663 881.649353,576.230591 882.964722,582.732910 
z" data-index="18"></path>
<path fill="#04060D" opacity="1.000000" stroke="none" d="
M554.387817,487.737549 
	C544.463440,464.069458 534.771545,440.158600 525.101379,416.238983 
	C523.930054,413.341797 522.875122,410.397644 521.614624,407.165161 
	C522.539917,408.072571 524.042542,409.115082 524.626221,410.535309 
	C529.282837,421.866455 533.753357,433.274017 538.304321,444.648804 
	C543.702576,458.141479 549.135132,471.620483 554.503784,485.124939 
	C554.780273,485.820404 554.596497,486.698853 554.387817,487.737549 
z" data-index="19" style="opacity: 1;"></path>
<path fill="#04060D" opacity="1.000000" stroke="none" d="
M658.115234,545.237183 
	C677.051697,549.565002 696.052246,554.159668 714.982178,559.028992 
	C720.047058,560.331909 724.896118,562.473511 730.028503,564.534912 
	C722.733459,563.140564 715.244385,561.483582 707.777283,559.732788 
	C695.535278,556.862366 683.256470,554.124756 671.100525,550.923767 
	C666.628052,549.746094 662.459900,547.413025 658.115234,545.237183 
z" data-index="20" style="visibility: visible;"></path>
<path fill="#04060D" opacity="1.000000" stroke="none" d="
M1101.778320,515.747803 
	C1101.596191,517.291443 1101.102295,518.549988 1100.608398,519.808533 
	C1100.311401,519.735107 1100.014526,519.661621 1099.717529,519.588135 
	C1099.717529,472.739319 1099.717529,425.890533 1099.703613,378.579895 
	C1100.126587,379.937653 1100.941284,381.756592 1100.944458,383.576935 
	C1101.016357,425.566467 1100.993652,467.556152 1101.019775,509.545807 
	C1101.020996,511.518158 1101.311157,513.490295 1101.778320,515.747803 
z" data-index="21"></path>
<path fill="#04060D" opacity="1.000000" stroke="none" d="
M734.149536,499.245239 
	C749.365906,498.836792 764.634033,498.836792 781.161133,498.836792 
	C779.405457,492.233917 777.747437,485.997986 776.086914,479.380371 
	C781.369751,481.735260 780.696594,487.347382 781.359863,491.726288 
	C782.753113,500.923401 782.251099,500.998230 772.388184,500.997894 
	C761.285217,500.997559 750.181641,501.054352 739.079834,500.940674 
	C737.449463,500.923950 735.827332,500.102692 734.149536,499.245239 
z" data-index="22" style="visibility: visible;"></path>
<path fill="#04060D" opacity="1.000000" stroke="none" d="
M1168.857544,627.231567 
	C1187.702759,626.979553 1206.363281,626.981140 1225.483276,626.905884 
	C1224.877075,627.550537 1223.816162,628.892761 1222.744995,628.900940 
	C1205.628540,629.032410 1188.510742,629.016541 1171.393799,628.929138 
	C1170.484375,628.924438 1169.579712,627.987976 1168.857544,627.231567 
z" data-index="23"></path>
<path fill="#04060D" opacity="1.000000" stroke="none" d="
M729.064880,590.470581 
	C715.595642,600.267700 692.169006,599.888611 677.934814,589.483521 
	C680.235046,590.045593 682.656067,591.132202 685.192566,591.720032 
	C690.638184,592.982117 696.119080,594.130066 701.629578,595.065491 
	C711.177307,596.686462 719.876953,593.107300 729.064880,590.470581 
z" data-index="24" style="visibility: visible;"></path>
<path fill="#04060D" opacity="1.000000" stroke="none" d="
M556.833496,627.250977 
	C574.025757,626.995850 591.040588,626.998596 608.523254,626.990479 
	C607.878357,627.651978 606.770569,628.900085 605.652222,628.909546 
	C590.401001,629.039490 575.148132,629.028320 559.896362,628.934814 
	C558.813416,628.928162 557.736023,628.005493 556.833496,627.250977 
z" data-index="25" style="visibility: visible;"></path>
<path fill="#04060D" opacity="1.000000" stroke="none" d="
M635.135376,470.667664 
	C626.617798,485.769226 624.553345,501.552979 630.045471,518.159424 
	C630.801758,520.446228 632.094666,522.555664 633.319946,525.041016 
	C631.848328,523.003601 629.610474,520.892273 628.639038,518.305298 
	C622.463013,501.858185 625.055542,486.199829 633.546570,471.225922 
	C633.744812,470.876373 634.374512,470.771515 635.135376,470.667664 
z" data-index="26" style="visibility: visible;"></path>
<path fill="#04060D" opacity="1.000000" stroke="none" d="
M360.111420,627.292542 
	C376.702667,626.922180 393.368164,626.955505 410.499329,626.959473 
	C410.041931,627.616272 409.123322,628.893372 408.195190,628.900330 
	C392.834137,629.015564 377.471802,628.986572 362.110168,628.909058 
	C361.466675,628.905823 360.827087,628.118286 360.111420,627.292542 
z" data-index="27" style="visibility: visible;"></path>
<path fill="#04060D" opacity="1.000000" stroke="none" d="
M509.865356,377.727539 
	C493.280334,378.095123 476.637512,378.055786 459.533569,378.072327 
	C459.973389,377.423645 460.869598,376.111908 461.775879,376.104919 
	C477.148743,375.986694 492.522980,376.015137 507.896454,376.092682 
	C508.535522,376.095917 509.170593,376.893280 509.865356,377.727539 
z" data-index="28" style="visibility: visible;"></path>
<path fill="#04060D" opacity="1.000000" stroke="none" d="
M668.855347,571.746948 
	C652.933594,572.104797 636.958313,572.054749 620.520630,572.055176 
	C620.967529,571.407532 621.872070,570.108521 622.786865,570.101196 
	C637.492126,569.984070 652.198730,570.015320 666.904663,570.096313 
	C667.539368,570.099854 668.169617,570.906494 668.855347,571.746948 
z" data-index="29" style="visibility: visible;"></path>
<path fill="#04060D" opacity="1.000000" stroke="none" d="
M1099.802734,377.840271 
	C1084.212280,378.173035 1068.599854,378.091492 1052.525391,378.061859 
	C1053.135620,377.411072 1054.201782,376.107300 1055.280640,376.096771 
	C1069.173706,375.961151 1083.068604,375.982513 1096.962524,376.072845 
	C1097.904907,376.078949 1098.841431,376.954651 1099.802734,377.840271 
z" data-index="30" style="visibility: visible;"></path>
<path fill="#04060D" opacity="1.000000" stroke="none" d="
M457.199951,381.689484 
	C450.736786,398.619232 443.937195,415.467041 436.994629,432.648865 
	C436.694855,432.082947 436.150940,431.029419 436.438110,430.305634 
	C442.589874,414.801880 448.822510,399.330078 455.094360,383.874359 
	C455.441010,383.020081 456.262878,382.358704 457.199951,381.689484 
z" data-index="31" style="visibility: visible;"></path>
<path fill="#04060D" opacity="1.000000" stroke="none" d="
M443.053009,542.375854 
	C444.810364,542.020203 446.460175,542.022461 448.518616,542.057800 
	C445.459686,542.792664 443.966278,544.926025 442.807648,548.347046 
	C438.812897,560.142151 434.281128,571.756165 429.874176,583.408997 
	C429.675720,583.933655 428.698730,584.163879 427.771118,584.358643 
	C432.620392,570.368530 437.782928,556.551147 443.053009,542.375854 
z" data-index="32" style="visibility: visible;"></path>
<path fill="#04060D" opacity="1.000000" stroke="none" d="
M411.277863,626.908325 
	C416.282928,613.088501 421.643250,599.216980 427.124695,585.028687 
	C427.322601,586.138245 427.868256,587.743164 427.403656,588.963440 
	C422.734802,601.226440 417.910858,613.430542 413.075439,625.629395 
	C412.869995,626.147705 412.126190,626.452515 411.277863,626.908325 
z" data-index="33" style="visibility: visible;"></path>
<path fill="#04060D" opacity="1.000000" stroke="none" d="
M923.298950,483.868286 
	C922.958374,471.609558 923.019714,459.273499 923.037842,446.470886 
	C923.656616,446.797943 924.888062,447.586700 924.894897,448.385956 
	C924.992249,459.706177 924.938110,471.027924 924.844421,482.348663 
	C924.840454,482.832550 924.098938,483.310333 923.298950,483.868286 
z" data-index="34" style="visibility: visible;"></path>
<path fill="#04060D" opacity="1.000000" stroke="none" d="
M684.190186,480.870422 
	C696.259705,473.993134 708.920044,474.388062 722.008423,480.064941 
	C720.614380,480.015686 718.909363,479.858154 717.215454,479.621399 
	C711.473206,478.818695 705.718994,477.267548 700.000061,477.393616 
	C695.343506,477.496216 690.732849,479.601501 686.095886,480.795593 
	C685.621216,480.917847 685.105713,480.881409 684.190186,480.870422 
z" data-index="35" style="visibility: visible;"></path>
<path fill="#04060D" opacity="1.000000" stroke="none" d="
M962.380493,627.960327 
	C977.130493,627.584351 992.060303,627.590759 1007.449280,627.665222 
	C1006.920898,628.153625 1005.935242,628.934326 1004.945374,628.939758 
	C991.423096,629.014160 977.900208,628.989563 964.377563,628.948242 
	C963.771179,628.946411 963.165955,628.553406 962.380493,627.960327 
z" data-index="36" style="visibility: visible;"></path>
<path fill="#04060D" opacity="1.000000" stroke="none" d="
M619.724487,572.110229 
	C621.494812,577.864319 622.885498,583.670776 624.414917,589.801636 
	C619.324951,588.256958 621.000610,582.837952 619.187012,579.223022 
	C618.254272,577.363953 619.230957,574.546814 619.724487,572.110229 
z" data-index="37" style="visibility: visible;"></path>
<path fill="#24262A" opacity="1.000000" stroke="none" d="
M798.658447,447.324249 
	C798.954712,458.687775 799.005798,470.383362 798.981812,482.543030 
	C798.625793,480.275848 798.107239,477.544525 798.107605,474.813293 
	C798.108826,465.760986 798.296875,456.708649 798.658447,447.324249 
z" data-index="38" style="visibility: visible;"></path>
<path fill="#04060D" opacity="1.000000" stroke="none" d="
M734.486084,568.974670 
	C738.250916,573.950012 737.554443,579.378113 734.482178,585.022217 
	C734.221375,579.939392 734.279114,574.661438 734.486084,568.974670 
z" data-index="39" style="visibility: visible;"></path>
<path fill="#04060D" opacity="1.000000" stroke="none" d="
M729.035767,486.271149 
	C730.711731,489.952789 732.382263,494.038330 734.118652,498.525391 
	C732.466492,494.842926 730.748474,490.758972 729.035767,486.271149 
z" data-index="40" style="visibility: visible;"></path>
<path fill="#04060D" opacity="1.000000" stroke="none" d="
M675.076416,490.047485 
	C677.029297,487.226440 679.163086,484.661255 681.621460,482.000031 
	C679.716553,484.703766 677.486938,487.503540 675.076416,490.047485 
z" data-index="41"></path>
<path fill="#04060D" opacity="1.000000" stroke="none" d="
M672.960938,583.666138 
	C671.624878,580.332214 670.283081,576.602295 668.881226,572.468628 
	C670.199158,575.799988 671.577209,579.535095 672.960938,583.666138 
z" data-index="42" style="visibility: visible;"></path>
<path fill="#24262A" opacity="1.000000" stroke="none" d="
M848.132812,618.233704 
	C849.671021,618.853943 851.246948,619.838013 853.072388,620.989807 
	C851.604797,620.304199 849.887573,619.450867 848.132812,618.233704 
z" data-index="43" style="visibility: visible;"></path>
<path fill="#04060D" opacity="1.000000" stroke="none" d="
M625.520996,593.031189 
	C626.533875,594.299561 627.348694,595.933289 628.321045,597.827271 
	C627.426636,596.523926 626.374756,594.960266 625.520996,593.031189 
z" data-index="44" style="visibility: visible;"></path>
<path fill="#04060D" opacity="1.000000" stroke="none" d="
M637.233521,531.046387 
	C638.542603,531.798096 639.798523,532.925781 641.234009,534.313660 
	C640.002502,533.523315 638.591492,532.472839 637.233521,531.046387 
z" data-index="45" style="visibility: visible;"></path>
<path fill="#04060D" opacity="1.000000" stroke="none" d="
M677.844971,588.878418 
	C676.550354,588.084106 675.281555,586.924255 673.899475,585.457886 
	C675.147705,586.271912 676.509216,587.392334 677.844971,588.878418 
z" data-index="46" style="visibility: visible;"></path>
<path fill="#24262A" opacity="1.000000" stroke="none" d="
M877.355225,630.325073 
	C879.407288,630.053711 881.720886,630.051697 884.464111,630.058350 
	C882.468018,630.242798 880.042358,630.418579 877.355225,630.325073 
z" data-index="47" style="visibility: visible;"></path>
<path fill="#04060D" opacity="1.000000" stroke="none" d="
M513.849243,386.850281 
	C513.099426,385.648163 512.410767,384.039368 511.583954,382.130920 
	C512.267334,383.368713 513.088806,384.906158 513.849243,386.850281 
z" data-index="48" style="visibility: visible;"></path>
<path fill="#04060D" opacity="1.000000" stroke="none" d="
M775.931641,477.845398 
	C775.217041,476.985809 774.525085,475.689423 773.668274,474.118958 
	C777.515503,472.835449 775.346191,476.077026 775.931641,477.845398 
z" data-index="49" style="visibility: visible;"></path>
<path fill="#04060D" opacity="1.000000" stroke="none" d="
M653.737183,542.844666 
	C655.173889,543.113403 656.519348,543.716919 657.995911,544.618774 
	C656.633301,544.337891 655.139709,543.758728 653.737183,542.844666 
z" data-index="50" style="visibility: visible;"></path>
<path fill="#04060D" opacity="1.000000" stroke="none" d="
M722.631470,480.880188 
	C723.816284,481.157288 724.834045,481.787872 725.987061,482.690247 
	C724.903015,482.385956 723.683716,481.809845 722.631470,480.880188 
z" data-index="51" style="visibility: visible;"></path>
<path fill="#04060D" opacity="1.000000" stroke="none" d="
M521.436584,405.942505 
	C520.714844,404.986725 520.206360,403.683502 519.573120,402.107361 
	C520.182251,403.087952 520.916016,404.341522 521.436584,405.942505 
z" data-index="52" style="visibility: visible;"></path>
<path fill="#04060D" opacity="1.000000" stroke="none" d="
M519.446533,400.942169 
	C518.726746,400.009796 518.216919,398.727631 517.583374,397.178101 
	C518.191895,398.137939 518.924133,399.365143 519.446533,400.942169 
z" data-index="53" style="visibility: visible;"></path>
<path fill="#04060D" opacity="1.000000" stroke="none" d="
M517.419556,395.933014 
	C516.695496,395.002747 516.189636,393.728577 515.567078,392.186218 
	C516.179504,393.141754 516.908630,394.365417 517.419556,395.933014 
z" data-index="54" style="visibility: visible;"></path>
<path fill="#04060D" opacity="1.000000" stroke="none" d="
M636.268860,609.015503 
	C637.244995,609.475403 638.157410,610.313171 639.201538,611.433411 
	C638.290588,610.941711 637.247864,610.167603 636.268860,609.015503 
z" data-index="55"></path>
<path fill="#24262A" opacity="1.000000" stroke="none" d="
M843.298462,614.065552 
	C844.247314,614.408630 845.157349,615.130127 846.234741,616.090698 
	C845.354614,615.701172 844.307129,615.072632 843.298462,614.065552 
z" data-index="56"></path>
<path fill="#24262A" opacity="1.000000" stroke="none" d="
M895.348877,630.328003 
	C897.088684,630.053101 899.079285,630.043640 901.494751,630.039917 
	C899.812988,630.228210 897.706299,630.410889 895.348877,630.328003 
z" data-index="57" style="visibility: visible;"></path>
<path fill="#24262A" opacity="1.000000" stroke="none" d="
M853.803711,621.891052 
	C855.244751,622.164917 856.588989,622.728516 857.765381,623.619873 
	C857.377258,623.953430 857.156982,623.959290 856.936646,623.965210 
	C855.860107,623.370422 854.783508,622.775635 853.803711,621.891052 
z" data-index="58" style="visibility: visible;"></path>
<path fill="#04060D" opacity="1.000000" stroke="none" d="
M515.414307,390.944885 
	C514.738892,390.112854 514.281372,388.951904 513.764526,387.478851 
	C514.347534,388.316498 514.989807,389.466217 515.414307,390.944885 
z" data-index="59" style="visibility: visible;"></path>
<path fill="#04060D" opacity="1.000000" stroke="none" d="
M646.749023,617.904053 
	C647.912903,618.169678 648.941956,618.772766 650.106567,619.647400 
	C649.032898,619.359802 647.823608,618.800720 646.749023,617.904053 
z" data-index="60" style="visibility: visible;"></path>
<path fill="#04060D" opacity="1.000000" stroke="none" d="
M641.342651,534.949951 
	C642.248474,535.156006 643.082458,535.739563 644.041016,536.604980 
	C643.200684,536.367126 642.235779,535.847290 641.342651,534.949951 
z" data-index="61" style="visibility: visible;"></path>
<path fill="#04060D" opacity="1.000000" stroke="none" d="
M731.725525,588.056396 
	C731.449036,588.780273 730.780945,589.488525 729.853271,590.344971 
	C730.173706,589.675720 730.753845,588.858276 731.725525,588.056396 
z" data-index="62" style="visibility: visible;"></path>
<path fill="#04060D" opacity="1.000000" stroke="none" d="
M628.664185,598.967896 
	C629.308350,599.345154 629.748352,600.034790 630.319763,600.932678 
	C629.787476,600.520752 629.123779,599.900513 628.664185,598.967896 
z" data-index="63" style="visibility: visible;"></path>
<path fill="#24262A" opacity="1.000000" stroke="none" d="
M836.686462,605.013611 
	C837.325562,605.430054 837.791748,606.158936 838.350098,607.132935 
	C837.799316,606.694031 837.156433,606.010071 836.686462,605.013611 
z" data-index="64" style="visibility: visible;"></path>
<path fill="#04060D" opacity="1.000000" stroke="none" d="
M637.127808,467.661591 
	C637.011353,468.489044 636.540405,469.215454 635.926636,470.161407 
	C636.113647,469.440826 636.443542,468.500702 637.127808,467.661591 
z" data-index="65" style="visibility: visible;"></path>
<path fill="#04060D" opacity="1.000000" stroke="none" d="
M511.433350,380.967712 
	C510.821472,380.419922 510.417114,379.534851 509.939575,378.364044 
	C510.457886,378.929047 511.049377,379.779724 511.433350,380.967712 
z" data-index="66" style="visibility: visible;"></path>
<path fill="#04060D" opacity="1.000000" stroke="none" d="
M458.744507,378.113647 
	C458.744263,378.973541 458.361877,379.873199 457.862183,381.045105 
	C457.950684,380.262726 458.156525,379.208069 458.744507,378.113647 
z" data-index="67" style="visibility: visible;"></path>
<path fill="#04060D" opacity="1.000000" stroke="none" d="
M731.526855,565.880615 
	C732.154236,565.924500 732.655945,566.331055 733.297363,566.939514 
	C732.758423,566.842041 732.079773,566.542664 731.526855,565.880615 
z" data-index="68" style="visibility: visible;"></path>
<path fill="#04060D" opacity="1.000000" stroke="none" d="
M644.133179,537.194214 
	C644.732727,537.167603 645.357483,537.505920 646.189209,538.015991 
	C645.650269,537.978210 644.904297,537.768616 644.133179,537.194214 
z" data-index="69" style="visibility: visible;"></path>
<path fill="#04060D" opacity="1.000000" stroke="none" d="
M638.894409,465.114746 
	C638.895386,465.729431 638.521423,466.370056 637.957581,467.217041 
	C638.018311,466.662506 638.268860,465.901581 638.894409,465.114746 
z" data-index="70" style="visibility: visible;"></path>
<path fill="#24262A" opacity="1.000000" stroke="none" d="
M838.528381,607.948181 
	C839.097595,608.202026 839.548706,608.782410 840.065674,609.633789 
	C839.557800,609.361328 838.984070,608.817993 838.528381,607.948181 
z" data-index="71" style="visibility: visible;"></path>
<path fill="#04060D" opacity="1.000000" stroke="none" d="
M648.302917,539.918579 
	C648.872925,539.811707 649.378113,540.026611 650.003540,540.489868 
	C649.495178,540.572266 648.866638,540.406372 648.302917,539.918579 
z" data-index="72" style="visibility: visible;"></path>
<path fill="#04060D" opacity="1.000000" stroke="none" d="
M630.662476,601.937866 
	C631.255615,602.213989 631.663269,602.808350 632.158569,603.660400 
	C631.656433,603.364197 631.066650,602.810120 630.662476,601.937866 
z" data-index="73" style="visibility: visible;"></path>
<path fill="#24262A" opacity="1.000000" stroke="none" d="
M870.270386,629.299438 
	C870.799866,629.063416 871.498047,629.058289 872.543640,629.064819 
	C872.073730,629.227783 871.256348,629.379089 870.270386,629.299438 
z" data-index="74" style="visibility: visible;"></path>
<path fill="#24262A" opacity="1.000000" stroke="none" d="
M906.276672,629.306030 
	C906.806519,629.067383 907.505127,629.059021 908.552002,629.058960 
	C908.081909,629.223694 907.263733,629.380066 906.276672,629.306030 
z" data-index="75" style="visibility: visible;"></path>
<path fill="#04060D" opacity="1.000000" stroke="none" d="
M857.190796,624.243896 
	C857.156982,623.959290 857.377258,623.953430 857.924805,623.901611 
	C858.825134,623.959778 859.398132,624.063965 860.164185,624.388245 
	C859.386414,624.579773 858.415649,624.551208 857.190796,624.243896 
z" data-index="76" style="visibility: visible;"></path>
<path fill="#04060D" opacity="1.000000" stroke="none" d="
M860.398315,624.903137 
	C861.152954,624.745422 862.014404,624.950317 863.111023,625.390869 
	C862.399170,625.506287 861.452148,625.385986 860.398315,624.903137 
z" data-index="77" style="visibility: visible;"></path>
<path fill="#04060D" opacity="1.000000" stroke="none" d="
M641.654785,613.818848 
	C642.131470,613.825745 642.545044,614.144531 643.061340,614.704834 
	C642.639954,614.674561 642.115723,614.402649 641.654785,613.818848 
z" data-index="78" style="visibility: visible;"></path>
<path fill="#04060D" opacity="1.000000" stroke="none" d="
M633.076843,605.180664 
	C633.434387,605.209717 633.823425,605.564575 634.362976,606.143921 
	C634.045166,606.081055 633.576721,605.793823 633.076843,605.180664 
z" data-index="79" style="visibility: visible;"></path>
<path fill="#24262A" opacity="1.000000" stroke="none" d="
M846.629211,616.873169 
	C847.090698,616.854919 847.517151,617.134338 848.035522,617.655334 
	C847.616272,617.654907 847.105286,617.412842 846.629211,616.873169 
z" data-index="80" style="visibility: visible;"></path>
<path fill="#04060D" opacity="1.000000" stroke="none" d="
M635.070496,528.210510 
	C635.437622,528.271423 635.839600,528.660645 636.373596,529.305786 
	C636.038879,529.220764 635.572083,528.879761 635.070496,528.210510 
z" data-index="81" style="visibility: visible;"></path>
<path fill="#24262A" opacity="1.000000" stroke="none" d="
M840.125671,610.180237 
	C840.480835,610.214478 840.859009,610.557922 841.337585,611.147461 
	C841.008179,611.092224 840.578430,610.790833 840.125671,610.180237 
z" data-index="82" style="visibility: visible;"></path>
<path fill="#04060D" opacity="1.000000" stroke="none" d="
M624.613464,590.987915 
	C624.958313,591.101868 625.128235,591.501526 625.407349,592.091675 
	C625.157166,591.946045 624.797791,591.609924 624.613464,590.987915 
z" data-index="83" style="visibility: visible;"></path>
<path fill="#04060D" opacity="1.000000" stroke="none" d="
M733.196228,586.576538 
	C733.200195,587.050476 732.887085,587.485291 732.323853,588.019958 
	C732.342163,587.592346 732.610657,587.064941 733.196228,586.576538 
z" data-index="84" style="visibility: visible;"></path>
<path fill="#04060D" opacity="1.000000" stroke="none" d="
M863.333069,625.852112 
	C863.692383,625.680725 864.070190,625.781250 864.720093,625.993347 
	C864.445312,626.111267 863.898438,626.117615 863.333069,625.852112 
z" data-index="85"></path>
<path fill="#04060D" opacity="1.000000" stroke="none" d="
M682.219666,481.924438 
	C682.355042,481.584229 682.810425,481.227325 683.565247,480.801697 
	C683.423035,481.124542 682.981323,481.516113 682.219666,481.924438 
z" data-index="86"></path>
<path fill="#04060D" opacity="1.000000" stroke="none" d="
M646.747437,538.837158 
	C647.247986,538.747314 647.675781,538.973694 648.236816,539.402466 
	C647.804993,539.454407 647.239746,539.303955 646.747437,538.837158 
z" data-index="87" style="visibility: visible;"></path>
<path fill="#04060D" opacity="1.000000" stroke="none" d="
M773.290771,473.081116 
	C772.978210,473.097717 772.853088,472.832031 772.739746,472.317596 
	C772.917603,472.348053 773.159851,472.591370 773.290771,473.081116 
z" data-index="88" style="visibility: visible;"></path>
<path fill="#04060D" opacity="1.000000" stroke="none" d="
M645.432007,616.788452 
	C645.662292,616.550781 645.864319,616.640503 646.129761,616.951599 
	C646.231262,617.087219 645.817200,617.324097 645.817200,617.324097 
	C645.817200,617.324097 645.441772,617.030090 645.432007,616.788452 
z" data-index="89" style="visibility: visible;"></path>
<path fill="#04060D" opacity="1.000000" stroke="none" d="
M644.230835,615.945251 
	C644.443359,615.826843 644.783264,615.981934 645.287598,616.365967 
	C645.087463,616.469543 644.722839,616.344116 644.230835,615.945251 
z" data-index="90" style="visibility: visible;"></path>
<path fill="#04060D" opacity="1.000000" stroke="none" d="
M648.858093,455.760254 
	C648.988342,455.888031 648.726135,456.233643 648.515686,456.286194 
	C648.446106,456.103333 648.586975,455.867889 648.858093,455.760254 
z" data-index="91"></path>
<path fill="#04060D" opacity="1.000000" stroke="none" d="
M733.786804,567.934387 
	C734.089905,567.801086 734.234253,567.916199 734.383118,568.216614 
	C734.429565,568.349365 733.985474,568.459045 733.985474,568.459045 
	C733.985474,568.459045 733.669922,568.130310 733.786804,567.934387 
z" data-index="92"></path>
<path fill="#04060D" opacity="1.000000" stroke="none" d="
M652.196411,542.030273 
	C652.332458,541.876709 652.608826,541.931763 653.072632,542.081604 
	C652.951172,542.202820 652.643372,542.223694 652.196411,542.030273 
z" data-index="93"></path>
<path fill="#04060D" opacity="1.000000" stroke="none" d="
M1107.807495,561.346191 
	C1107.675781,561.226501 1107.747192,561.032715 1107.848145,561.010864 
	C1108.057617,561.172180 1108.166260,561.355347 1108.275024,561.538452 
	C1108.163086,561.514221 1108.051147,561.490051 1107.807495,561.346191 
z" data-index="94"></path>
<path fill="#04060D" opacity="1.000000" stroke="none" d="
M1106.802734,562.411377 
	C1106.633789,562.129517 1106.773193,561.936035 1107.123535,561.690979 
	C1107.204834,561.886414 1107.130371,562.173218 1106.802734,562.411377 
z" data-index="95"></path>
<path fill="#04060D" opacity="1.000000" stroke="none" d="
M1105.811035,563.411072 
	C1105.653198,563.120239 1105.810669,562.916931 1106.189209,562.657104 
	C1106.262817,562.859070 1106.168091,563.158386 1105.811035,563.411072 
z" data-index="96" style="visibility: visible;"></path>
<path fill="#04060D" opacity="1.000000" stroke="none" d="
M1104.798096,564.461548 
	C1104.631470,564.175354 1104.792969,563.956543 1105.184326,563.669434 
	C1105.262207,563.869080 1105.166260,564.178345 1104.798096,564.461548 
z" data-index="97" style="visibility: visible;"></path>
<path fill="#04060D" opacity="1.000000" stroke="none" d="
M730.249390,565.003662 
	C730.437073,564.808044 730.737915,564.894775 731.207886,565.171265 
	C731.049866,565.297791 730.711731,565.272827 730.249390,565.003662 
z" data-index="98" style="visibility: visible;"></path>
<path fill="#04060D" opacity="1.000000" stroke="none" d="
M1103.838013,565.570679 
	C1103.632202,565.284180 1103.794556,565.020081 1104.234619,564.673462 
	C1104.326172,564.873413 1104.224243,565.207458 1103.838013,565.570679 
z" data-index="99" style="visibility: visible;"></path>
<path fill="#04060D" opacity="1.000000" stroke="none" d="
M1102.856445,566.590149 
	C1102.756348,566.344604 1102.945679,566.067688 1103.363281,565.675964 
	C1103.442993,565.893738 1103.294434,566.226196 1102.856445,566.590149 
z" data-index="100" style="visibility: visible;"></path>
<path fill="#04060D" opacity="1.000000" stroke="none" d="
M1101.867798,567.607422 
	C1101.768799,567.363281 1101.958374,567.080383 1102.381836,566.684326 
	C1102.462524,566.903625 1102.309570,567.236145 1101.867798,567.607422 
z" data-index="101"></path>
<path fill="#04060D" opacity="1.000000" stroke="none" d="
M633.599976,525.863403 
	C633.926758,525.827148 634.072327,526.112427 634.190063,526.681396 
	C634.014404,526.653992 633.766602,526.393982 633.599976,525.863403 
z" data-index="102"></path>
<path fill="#04060D" opacity="1.000000" stroke="none" d="
M673.794189,584.967896 
	C673.587463,585.005188 673.312378,584.784607 672.990417,584.293579 
	C673.204346,584.252075 673.465027,584.481018 673.794189,584.967896 
z" data-index="103"></path>
<path fill="#04060D" opacity="1.000000" stroke="none" d="
M648.076538,456.317566 
	C648.111023,456.530304 647.858887,456.789093 647.342163,457.142639 
	C647.315002,456.946106 647.552490,456.654846 648.076538,456.317566 
z" data-index="104" style="visibility: visible;"></path>
<path fill="#04060D" opacity="1.000000" stroke="none" d="
M734.000732,585.253906 
	C734.188782,585.443970 734.096130,585.746948 733.813904,586.219727 
	C733.690002,586.058960 733.721863,585.718018 734.000732,585.253906 
z" data-index="105" style="visibility: visible;"></path>
<path fill="#04060D" opacity="1.000000" stroke="none" d="
M636.463806,529.833008 
	C636.717590,529.779175 636.960815,530.015991 637.281738,530.499390 
	C637.057434,530.538513 636.755310,530.331055 636.463806,529.833008 
z" data-index="106"></path>
<path fill="#04060D" opacity="1.000000" stroke="none" d="
M634.606018,606.839478 
	C634.929016,606.726868 635.135681,606.937622 635.357666,607.414124 
	C635.133301,607.453857 634.838806,607.281555 634.606018,606.839478 
z" data-index="107"></path>
<path fill="#04060D" opacity="1.000000" stroke="none" d="
M635.400940,607.866272 
	C635.648682,607.786377 635.923767,607.995972 636.293884,608.452271 
	C636.068665,608.517944 635.748474,608.336853 635.400940,607.866272 
z" data-index="108"></path>
<path fill="#04060D" opacity="1.000000" stroke="none" d="
M639.328491,611.918701 
	C639.557129,611.799500 639.862488,611.960266 640.303345,612.346130 
	C640.094299,612.447021 639.749756,612.322815 639.328491,611.918701 
z" data-index="109"></path>
<path fill="#24262A" opacity="1.000000" stroke="none" d="
M841.631287,611.921021 
	C841.952271,611.736511 842.149170,611.877991 842.314453,612.300049 
	C842.352722,612.483337 841.883301,612.505432 841.883301,612.505432 
	C841.883301,612.505432 841.576965,612.149841 841.631287,611.921021 
z" data-index="110"></path>
<path fill="#04060D" opacity="1.000000" stroke="none" d="
M640.437012,612.811768 
	C640.695557,612.590088 640.930664,612.714233 641.246887,613.079102 
	C641.065857,613.184937 640.761047,613.130859 640.437012,612.811768 
z" data-index="111"></path>
<path fill="#24262A" opacity="1.000000" stroke="none" d="
M842.504456,612.912048 
	C842.848389,612.723755 843.080933,612.908081 843.265259,613.434326 
	C843.034973,613.495667 842.760254,613.331787 842.504456,612.912048 
z" data-index="112"></path>
<path fill="#0B1220" opacity="1.000000" stroke="none" d="
M511.187378,507.524414 
	C504.420502,506.957825 497.607239,506.005127 489.932861,505.037659 
	C487.072754,505.046448 485.073730,505.070038 483.074707,505.093628 
	C482.620789,505.066986 482.166901,505.040405 481.372498,505.003357 
	C473.375885,504.269775 465.719788,503.546631 457.600037,502.637604 
	C457.136353,502.451691 457.103943,502.144714 457.103943,502.144714 
	C465.764496,479.454895 474.424438,456.764832 483.095459,434.079041 
	C483.188934,433.834503 483.428864,433.645996 484.080994,432.830383 
	C493.216522,457.916992 502.178741,482.527618 511.187378,507.524414 
z" data-index="113" style="opacity: 1; visibility: visible; fill: rgb(237, 235, 239);"></path>
<path fill="#124E39" opacity="1.000000" stroke="none" d="
M456.632141,502.085907 
	C457.103943,502.144714 457.136353,502.451691 457.143402,502.603485 
	C454.654266,503.081390 452.163147,503.611694 449.660431,503.673309 
	C447.383759,503.729370 445.094574,503.276184 441.980652,503.048615 
	C440.126312,503.059174 439.102173,503.068542 438.078033,503.077942 
	C436.979645,503.060852 435.881287,503.043732 434.141907,503.032104 
	C433.500946,503.037628 433.041779,503.051147 433.041779,503.051147 
	C432.583832,503.040771 432.125854,503.030365 431.324036,503.028625 
	C424.182465,502.903748 417.384766,502.770233 410.291870,502.339935 
	C418.260834,501.764923 426.524475,501.288605 434.789215,501.268646 
	C441.912292,501.251465 449.036591,501.754211 456.632141,502.085907 
z" data-index="114"></path>
<path fill="#0B1220" opacity="1.000000" stroke="none" d="
M522.473389,537.209473 
	C521.977722,537.139709 520.986450,536.849243 520.784607,536.279236 
	C518.817200,530.723083 516.981628,525.120117 515.172058,519.122925 
	C517.605042,524.763184 519.974548,530.811157 522.473389,537.209473 
z" data-index="115"></path>
<path fill="#0B1220" opacity="1.000000" stroke="none" d="
M514.159912,515.536804 
	C513.171570,513.470276 512.131042,511.033752 511.108032,508.190918 
	C512.119507,510.245361 513.113586,512.706055 514.159912,515.536804 
z" data-index="116"></path>
<path fill="#0B1220" opacity="1.000000" stroke="none" d="
M515.280762,518.506470 
	C514.940308,518.074829 514.519043,517.315186 514.113159,516.179688 
	C514.485718,516.595398 514.842834,517.386963 515.280762,518.506470 
z" data-index="117"></path>
<path fill="#0B1220" opacity="1.000000" stroke="none" d="
M523.275879,539.551392 
	C522.970154,539.335999 522.605530,538.826172 522.380005,537.980225 
	C522.751587,538.181763 522.984253,538.719360 523.275879,539.551392 
z" data-index="118"></path>
<path fill="#24262A" opacity="1.000000" stroke="none" d="
M844.400940,403.869202 
	C845.490112,403.621674 846.988342,403.472839 848.740112,403.547882 
	C847.599121,403.837158 846.204590,403.902557 844.400940,403.869202 
z" data-index="119" style="visibility: visible;"></path>
<path fill="#24262A" opacity="1.000000" stroke="none" d="
M912.689697,626.625977 
	C912.486816,626.848145 912.054260,627.023376 911.386353,627.132202 
	C911.587341,626.903503 912.023743,626.741272 912.689697,626.625977 
z" data-index="120"></path>
<path fill="#24262A" opacity="1.000000" stroke="none" d="
M853.321655,403.864624 
	C853.557556,403.636475 854.122681,403.506042 854.841858,403.569946 
	C854.547607,403.830322 854.099243,403.896362 853.321655,403.864624 
z" data-index="121" style="visibility: visible;"></path>
<path fill="#24262A" opacity="1.000000" stroke="none" d="
M908.693359,627.097412 
	C908.444153,627.430969 907.876465,627.708496 906.988403,627.907837 
	C907.237000,627.566833 907.805847,627.304077 908.693359,627.097412 
z" data-index="122"></path>
<path fill="#24262A" opacity="1.000000" stroke="none" d="
M871.385620,627.405762 
	C871.210266,627.605713 870.823120,627.591309 870.215515,627.369812 
	C870.388000,627.172241 870.780884,627.181824 871.385620,627.405762 
z" data-index="123"></path>
<path fill="#24262A" opacity="1.000000" stroke="none" d="
M896.664551,628.743774 
	C896.646973,629.058411 896.434387,629.137146 896.020508,629.010620 
	C896.015015,628.683411 896.231750,628.584290 896.664551,628.743774 
z" data-index="124"></path>
<path fill="#0B1220" opacity="1.000000" stroke="none" d="
M878.105713,445.278809 
	C878.402283,445.107910 878.615723,445.262421 878.889099,445.643921 
	C878.679443,445.727722 878.370544,445.638824 878.105713,445.278809 
z" data-index="125"></path>
<path fill="#24262A" opacity="1.000000" stroke="none" d="
M875.241333,403.861938 
	C875.265747,403.672241 875.543579,403.575653 875.913086,403.628540 
	C875.834717,403.837006 875.664673,403.896027 875.241333,403.861938 
z" data-index="126" style="visibility: visible;"></path>
<path fill="#124E39" opacity="1.000000" stroke="none" d="
M393.489471,542.153748 
	C394.983185,541.456909 396.893219,540.188171 398.862061,540.089233 
	C409.249542,539.567200 419.651855,539.340088 430.518860,539.314941 
	C430.986481,540.021912 430.984253,540.424622 430.982025,540.827393 
	C418.632324,541.258789 406.282623,541.690125 393.489471,542.153748 
z" data-index="127"></path>
<path fill="#165C41" opacity="1.000000" stroke="none" d="
M431.313477,540.903687 
	C430.984253,540.424622 430.986481,540.021912 430.986511,539.317383 
	C431.619843,539.422546 432.255371,539.829468 432.941132,540.541199 
	C432.542572,540.890686 432.093750,540.935364 431.313477,540.903687 
z" data-index="128"></path>
<path fill="#186648" opacity="1.000000" stroke="none" d="
M438.280579,503.322876 
	C439.102173,503.068542 440.126312,503.059174 441.532715,503.067749 
	C440.771027,503.246399 439.627106,503.407074 438.280579,503.322876 
z" data-index="129"></path>
<path fill="#186648" opacity="1.000000" stroke="none" d="
M433.122314,503.204163 
	C433.041779,503.051147 433.500946,503.037628 433.730042,503.043945 
	C433.707001,503.152588 433.454926,503.254883 433.122314,503.204163 
z" data-index="130"></path>
<path fill="#165C41" opacity="1.000000" stroke="none" d="
M483.333008,505.353180 
	C485.073730,505.070038 487.072754,505.046448 489.497040,505.059937 
	C487.811951,505.268921 485.701630,505.440826 483.333008,505.353180 
z" data-index="131"></path>
</svg>